G04*
G04 #@! TF.GenerationSoftware,Altium Limited,Altium Designer,20.1.14 (287)*
G04*
G04 Layer_Color=8421504*
%FSLAX25Y25*%
%MOIN*%
G70*
G04*
G04 #@! TF.SameCoordinates,F17826E9-34F6-497C-9B9F-35048D5DD880*
G04*
G04*
G04 #@! TF.FilePolarity,Positive*
G04*
G01*
G75*
%ADD12C,0.01000*%
%ADD19R,0.03937X0.03740*%
%ADD20R,0.03740X0.03937*%
%ADD21R,0.06299X0.01772*%
%ADD22R,0.04528X0.01772*%
%ADD23R,0.01968X0.01378*%
%ADD24R,0.05709X0.01772*%
%ADD25R,0.08504X0.10984*%
%ADD26R,0.03937X0.01968*%
%ADD27R,0.10000X0.06063*%
D12*
X0Y0D02*
X275591D01*
X0D02*
Y228346D01*
X275590D01*
X275591Y0D01*
D19*
X23622Y69685D02*
D03*
X23621Y75985D02*
D03*
X11024Y69685D02*
D03*
X11023Y75985D02*
D03*
X177558Y170473D02*
D03*
X177559Y164173D02*
D03*
X170473Y164173D02*
D03*
X170472Y170472D02*
D03*
X105512Y164173D02*
D03*
X105511Y170473D02*
D03*
X52756Y168898D02*
D03*
X52755Y175197D02*
D03*
X59842Y175197D02*
D03*
X59843Y168897D02*
D03*
X98425Y170472D02*
D03*
X98426Y164173D02*
D03*
X135039Y168504D02*
D03*
X135039Y162205D02*
D03*
X219685Y14567D02*
D03*
X219684Y20866D02*
D03*
X149606Y22441D02*
D03*
X149606Y28741D02*
D03*
X141732Y22441D02*
D03*
X141732Y28741D02*
D03*
X193701Y67323D02*
D03*
X193700Y73622D02*
D03*
X187795Y103937D02*
D03*
X187795Y110237D02*
D03*
X216142Y162598D02*
D03*
X216141Y168898D02*
D03*
D20*
X212992Y60236D02*
D03*
X206693Y60236D02*
D03*
X155118Y153544D02*
D03*
X148819Y153543D02*
D03*
X79134Y153543D02*
D03*
X72834Y153543D02*
D03*
X87008Y177165D02*
D03*
X80708Y177165D02*
D03*
X64567Y215748D02*
D03*
X58267Y215747D02*
D03*
X58268Y208661D02*
D03*
X64567Y208662D02*
D03*
X29528Y174409D02*
D03*
X23228Y174409D02*
D03*
X150000Y177165D02*
D03*
X156299Y177165D02*
D03*
X111417Y215748D02*
D03*
X117717Y215749D02*
D03*
X117717Y208661D02*
D03*
X111417Y208661D02*
D03*
X220472Y196850D02*
D03*
X214173Y196850D02*
D03*
X227559Y220472D02*
D03*
X221259Y220472D02*
D03*
X67323Y88583D02*
D03*
X61023Y88582D02*
D03*
X67323Y81102D02*
D03*
X61023Y81102D02*
D03*
X67323Y74016D02*
D03*
X61023Y74015D02*
D03*
X61024Y66929D02*
D03*
X67323Y66930D02*
D03*
X208268Y126772D02*
D03*
X214567Y126772D02*
D03*
D21*
X216929Y207382D02*
D03*
X231890Y209941D02*
D03*
X216929D02*
D03*
X231890Y207382D02*
D03*
X216929Y204822D02*
D03*
X231890Y212500D02*
D03*
X216929D02*
D03*
X231890Y204823D02*
D03*
X205906Y161122D02*
D03*
X190945Y158563D02*
D03*
X205906D02*
D03*
X190945Y161122D02*
D03*
X205906Y163681D02*
D03*
X190945Y156004D02*
D03*
X205906D02*
D03*
X190945Y163681D02*
D03*
D22*
X196949Y118799D02*
D03*
X214075Y111122D02*
D03*
X196949D02*
D03*
X214075Y118799D02*
D03*
X196949Y116240D02*
D03*
X214075Y113681D02*
D03*
X196949D02*
D03*
X214075Y116240D02*
D03*
D23*
X208661Y74311D02*
D03*
Y71752D02*
D03*
Y69193D02*
D03*
Y66634D02*
D03*
X202362Y74311D02*
D03*
Y71752D02*
D03*
Y69193D02*
D03*
Y66634D02*
D03*
D24*
X69685Y169193D02*
D03*
X87008Y161515D02*
D03*
X69685D02*
D03*
X87008Y169193D02*
D03*
X69685Y166634D02*
D03*
X87008Y164075D02*
D03*
X69685D02*
D03*
X87008Y166634D02*
D03*
X161024Y166634D02*
D03*
X143701Y164075D02*
D03*
X161024D02*
D03*
X143701Y166634D02*
D03*
X161024Y169193D02*
D03*
X143701Y161515D02*
D03*
X161024D02*
D03*
X143701Y169193D02*
D03*
D25*
X83898Y107874D02*
D03*
X168898D02*
D03*
D26*
X187795Y116732D02*
D03*
Y121063D02*
D03*
D27*
X129449Y12559D02*
D03*
Y22559D02*
D03*
Y32559D02*
D03*
Y42559D02*
D03*
X63465D02*
D03*
Y32559D02*
D03*
Y22559D02*
D03*
Y12559D02*
D03*
M02*
