M48
;Layer_Color=9474304
;FILE_FORMAT=2:5
INCH,LZ
;TYPE=PLATED
T1F00S00C0.01200
T2F00S00C0.03150
T3F00S00C0.03543
T4F00S00C0.03543
T5F00S00C0.03937
T6F00S00C0.04213
T7F00S00C0.15000
;TYPE=NON_PLATED
T8F00S00C0.04331
%
T01
X007559Y004252
X0138976
X0149606Y0033858
X0219685Y000945
X0217322Y0060334
X021998Y0069193
X022441Y0069291
X0212992Y007441
X0219981Y0111122
X022441Y0111024
X0219684Y0126772
X0219685Y0147638
X0219291Y0151575
X022441
X0216142Y0157481
X0216141Y0174015
X0214173Y0191733
X0190157Y0148819
X0182677Y0147638
X0177559Y0159056
X0160236Y0153544
X0143702Y0153543
X0129134Y0165748
X0135039Y0175196
X0105511Y0159056
X0084251Y0153543
X0067717Y0153543
X0059842Y0180314
X007559Y0181102
Y0107874
X007244Y0088582
X007244Y0081102
X0113386Y0063386
X0193701Y0062206
X0183858Y0093701
X0187795Y009882
X0203151Y0126772
X0198031Y0136614
X0149213Y0115354
X0122833Y0208661
X0053151Y0208661
X0052755Y0180314
X0051181Y0147638
X001811Y0174409
X0029528Y0075984
X0055906Y0066929
X0215748Y0220472
T02
X0160039Y0012559
Y0022559
Y0032559
Y0042559
X0210039
Y0032559
Y0022559
Y0012559
T03
X0145669Y0209015
X0155512
X0165354
X0175197
X0185039
X0194882
T04
X0042795Y0011969
Y0021969
Y0031969
Y0041969
Y0051968
X0232795Y005
Y004
Y003
Y002
Y001
Y006
Y007
Y008
Y0095984
Y0105984
Y0115984
Y0125984
Y0135984
Y0145984
Y0155984
Y0165984
Y0175984
Y0185984
X0263386Y0166457
Y0156457
Y0146457
Y0136457
X0042795Y0131968
Y0141969
Y0151969
Y0121968
Y0111969
Y0101969
Y0091969
Y0081968
Y0061968
T05
X0027953Y0207874
X0037795
T06
X0076614Y0208268
X0086614
X0096614
T07
X0019685Y0019685
X0255906Y0208661
T08
X0044094Y0215748
X0201181Y0216889
M30
