G04*
G04 #@! TF.GenerationSoftware,Altium Limited,Altium Designer,20.1.14 (287)*
G04*
G04 Layer_Physical_Order=1*
G04 Layer_Color=255*
%FSLAX25Y25*%
%MOIN*%
G70*
G04*
G04 #@! TF.SameCoordinates,F17826E9-34F6-497C-9B9F-35048D5DD880*
G04*
G04*
G04 #@! TF.FilePolarity,Positive*
G04*
G01*
G75*
%ADD12C,0.01000*%
%ADD16C,0.00600*%
%ADD19R,0.03937X0.03740*%
%ADD20R,0.03740X0.03937*%
%ADD21R,0.06299X0.01772*%
%ADD22R,0.04528X0.01772*%
%ADD23R,0.01968X0.01378*%
%ADD24R,0.05709X0.01772*%
%ADD25R,0.08504X0.10984*%
%ADD26R,0.03937X0.01968*%
%ADD27R,0.10000X0.06063*%
%ADD44C,0.05906*%
%ADD45C,0.01968*%
%ADD46R,0.05906X0.05906*%
%ADD47C,0.07087*%
%ADD48R,0.07087X0.07087*%
%ADD49C,0.25000*%
%ADD50R,0.05512X0.05512*%
%ADD51C,0.05512*%
%ADD52C,0.02200*%
G36*
X274061Y1529D02*
X187022D01*
X186831Y1991D01*
X205783Y20944D01*
X207076D01*
X207108Y20867D01*
X207646Y20166D01*
X208347Y19628D01*
X209163Y19289D01*
X210039Y19174D01*
X210915Y19289D01*
X211732Y19628D01*
X212208Y19993D01*
X212452Y19830D01*
X212881Y19745D01*
X212881Y19745D01*
X215748D01*
X215748Y19745D01*
X215750Y19745D01*
X217116D01*
Y18396D01*
X222253D01*
Y23336D01*
X217116D01*
Y21988D01*
X215748D01*
X215748Y21988D01*
X215747Y21988D01*
X213728D01*
X213399Y22364D01*
X213424Y22559D01*
X213309Y23435D01*
X212971Y24251D01*
X212433Y24952D01*
X211732Y25490D01*
X210915Y25829D01*
X210039Y25944D01*
X209163Y25829D01*
X208347Y25490D01*
X207646Y24952D01*
X207108Y24251D01*
X207076Y24174D01*
X205114D01*
X204496Y24051D01*
X203972Y23701D01*
X184370Y4100D01*
X155665D01*
X151222Y8543D01*
Y19971D01*
X152175D01*
Y20826D01*
X153571D01*
X154189Y20949D01*
X154713Y21299D01*
X155867Y22452D01*
X156217Y22976D01*
X156694Y22859D01*
X156655Y22559D01*
X156770Y21683D01*
X157108Y20867D01*
X157646Y20166D01*
X158347Y19628D01*
X159163Y19289D01*
X160039Y19174D01*
X160915Y19289D01*
X161732Y19628D01*
X162433Y20166D01*
X162971Y20867D01*
X163309Y21683D01*
X163424Y22559D01*
X163309Y23435D01*
X162971Y24251D01*
X162433Y24952D01*
X161732Y25490D01*
X160915Y25829D01*
X160039Y25944D01*
X159163Y25829D01*
X158347Y25490D01*
X157646Y24952D01*
X157108Y24251D01*
X156840Y23604D01*
X156340Y23703D01*
Y31415D01*
X156840Y31514D01*
X157108Y30867D01*
X157646Y30166D01*
X158347Y29628D01*
X159163Y29289D01*
X160039Y29174D01*
X160915Y29289D01*
X161732Y29628D01*
X162433Y30166D01*
X162971Y30867D01*
X163309Y31683D01*
X163424Y32559D01*
X163309Y33435D01*
X162971Y34251D01*
X162433Y34953D01*
X161732Y35490D01*
X160915Y35829D01*
X160039Y35944D01*
X159163Y35829D01*
X158347Y35490D01*
X157646Y34953D01*
X157108Y34251D01*
X156840Y33604D01*
X156340Y33703D01*
Y37795D01*
X156217Y38413D01*
X155867Y38938D01*
X150828Y43976D01*
Y114761D01*
X150946Y115354D01*
X150814Y116018D01*
X150438Y116580D01*
X149876Y116956D01*
X149213Y117088D01*
X148549Y116956D01*
X147987Y116580D01*
X147611Y116018D01*
X147479Y115354D01*
X147597Y114761D01*
Y43307D01*
X147720Y42689D01*
X148070Y42165D01*
X153109Y37126D01*
Y24263D01*
X152902Y24056D01*
X152175D01*
Y24911D01*
X147038D01*
Y23562D01*
X144301D01*
Y24911D01*
X139164D01*
Y23562D01*
X135049D01*
Y26191D01*
X123849D01*
Y18928D01*
X135049D01*
Y21319D01*
X139164D01*
Y19971D01*
X144301D01*
Y21319D01*
X147038D01*
Y19971D01*
X147991D01*
Y7874D01*
X148114Y7256D01*
X148464Y6732D01*
X153205Y1991D01*
X153013Y1529D01*
X1529D01*
Y226817D01*
X274061D01*
X274061Y1529D01*
D02*
G37*
%LPC*%
G36*
X223730Y223040D02*
X218789D01*
Y221593D01*
X217044D01*
X216974Y221698D01*
X216411Y222074D01*
X215748Y222206D01*
X215085Y222074D01*
X214522Y221698D01*
X214147Y221136D01*
X214015Y220472D01*
X214147Y219809D01*
X214522Y219247D01*
X215085Y218871D01*
X215748Y218739D01*
X216411Y218871D01*
X216974Y219247D01*
X217043Y219350D01*
X217997D01*
X218188Y218888D01*
X216136Y216836D01*
X215893Y216472D01*
X215808Y216043D01*
X215808Y216043D01*
Y213986D01*
X213179D01*
Y211015D01*
Y208299D01*
X211108D01*
X205373Y214035D01*
X205076Y214234D01*
X204724Y214303D01*
X203175D01*
X203006Y214804D01*
X203153Y214917D01*
X203597Y215494D01*
X203875Y216167D01*
X203970Y216889D01*
X203875Y217611D01*
X203597Y218284D01*
X203153Y218861D01*
X202576Y219305D01*
X201903Y219583D01*
X201181Y219678D01*
X200459Y219583D01*
X199786Y219305D01*
X199209Y218861D01*
X198766Y218284D01*
X198487Y217611D01*
X198392Y216889D01*
X198487Y216167D01*
X198766Y215494D01*
X199209Y214917D01*
X199356Y214804D01*
X199187Y214303D01*
X189410D01*
X189059Y214234D01*
X188761Y214035D01*
X186839Y212112D01*
X186831Y212118D01*
X185967Y212476D01*
X185039Y212598D01*
X184112Y212476D01*
X183248Y212118D01*
X182506Y211549D01*
X181936Y210807D01*
X181578Y209943D01*
X181456Y209015D01*
X181578Y208088D01*
X181936Y207223D01*
X182506Y206481D01*
X183248Y205912D01*
X184112Y205554D01*
X185039Y205432D01*
X185967Y205554D01*
X186831Y205912D01*
X187573Y206481D01*
X188143Y207223D01*
X188501Y208088D01*
X188623Y209015D01*
X188501Y209943D01*
X188143Y210807D01*
X188137Y210815D01*
X189790Y212468D01*
X191329D01*
Y205462D01*
X198435D01*
Y208097D01*
X202514D01*
X206438Y204174D01*
X206735Y203975D01*
X207087Y203905D01*
X213179D01*
Y203337D01*
X219555D01*
Y199419D01*
X218002D01*
Y194282D01*
X222942D01*
Y199419D01*
X221390D01*
Y203838D01*
X221320Y204189D01*
X221121Y204487D01*
X220679Y204930D01*
Y208455D01*
Y211379D01*
X222862D01*
X224469Y209772D01*
Y206693D01*
X224469Y206693D01*
X224554Y206264D01*
X224798Y205900D01*
X226577Y204120D01*
X226577Y204120D01*
X226941Y203877D01*
X227370Y203792D01*
X227370Y203792D01*
X228140D01*
Y203337D01*
X235639D01*
Y206464D01*
X239088D01*
X241208Y204344D01*
Y191732D01*
X241208Y42506D01*
X239620Y40918D01*
X236258D01*
X236257Y40927D01*
X235899Y41792D01*
X235329Y42534D01*
X234587Y43103D01*
X233723Y43461D01*
X232795Y43583D01*
X231868Y43461D01*
X231004Y43103D01*
X230261Y42534D01*
X229692Y41792D01*
X229334Y40927D01*
X229212Y40000D01*
X229334Y39073D01*
X229692Y38208D01*
X230261Y37466D01*
X231004Y36897D01*
X231868Y36539D01*
X232795Y36417D01*
X233723Y36539D01*
X234587Y36897D01*
X235329Y37466D01*
X235899Y38208D01*
X236257Y39073D01*
X236258Y39082D01*
X240000D01*
X240351Y39152D01*
X240649Y39351D01*
X242775Y41477D01*
X242974Y41775D01*
X243044Y42126D01*
X243044Y191732D01*
Y204174D01*
X243544Y204274D01*
X244197Y202696D01*
X245275Y200938D01*
X246614Y199370D01*
X248182Y198030D01*
X249940Y196953D01*
X251845Y196164D01*
X253850Y195683D01*
X255906Y195521D01*
X257961Y195683D01*
X259966Y196164D01*
X261871Y196953D01*
X263629Y198030D01*
X265197Y199370D01*
X266536Y200938D01*
X267614Y202696D01*
X268403Y204601D01*
X268884Y206606D01*
X269046Y208661D01*
X268884Y210717D01*
X268403Y212722D01*
X267614Y214627D01*
X266536Y216385D01*
X265197Y217953D01*
X263629Y219292D01*
X261871Y220370D01*
X259966Y221159D01*
X257961Y221640D01*
X255906Y221802D01*
X253850Y221640D01*
X251845Y221159D01*
X249940Y220370D01*
X248182Y219292D01*
X246614Y217953D01*
X245275Y216385D01*
X244197Y214627D01*
X243408Y212722D01*
X242927Y210717D01*
X242765Y208661D01*
X242927Y206606D01*
X243149Y205679D01*
X243131Y205664D01*
X242688Y205461D01*
X240117Y208031D01*
X239820Y208230D01*
X239469Y208299D01*
X235639D01*
Y210614D01*
X236039D01*
Y212000D01*
X231890D01*
X227740D01*
Y211063D01*
X226350D01*
X224119Y213293D01*
X223756Y213537D01*
X223326Y213622D01*
X223326Y213622D01*
X220679D01*
Y213986D01*
X218051D01*
Y215578D01*
X220376Y217903D01*
X223730D01*
Y223040D01*
D02*
G37*
G36*
X230429Y223441D02*
X228059D01*
Y220972D01*
X230429D01*
Y223441D01*
D02*
G37*
G36*
X227059D02*
X224689D01*
Y220972D01*
X227059D01*
Y223441D01*
D02*
G37*
G36*
Y219972D02*
X224689D01*
Y217504D01*
X227059D01*
Y219972D01*
D02*
G37*
G36*
X60738Y218316D02*
X55797D01*
Y216870D01*
X53150D01*
X52720Y216784D01*
X52357Y216541D01*
X52356Y216541D01*
X48419Y212604D01*
X48176Y212240D01*
X48091Y211811D01*
X48091Y211811D01*
Y188976D01*
X48091Y188976D01*
X48176Y188547D01*
X48419Y188183D01*
X51634Y184969D01*
Y181609D01*
X51530Y181540D01*
X51154Y180978D01*
X51022Y180314D01*
X51154Y179651D01*
X51530Y179089D01*
X51634Y179019D01*
Y177667D01*
X50187D01*
Y172727D01*
X55324D01*
Y177667D01*
X53877D01*
Y179019D01*
X53981Y179089D01*
X54357Y179651D01*
X54489Y180314D01*
X54357Y180978D01*
X53981Y181540D01*
X53877Y181609D01*
Y185434D01*
X53791Y185863D01*
X53548Y186227D01*
X53548Y186227D01*
X50334Y189441D01*
Y211347D01*
X53614Y214627D01*
X55797D01*
Y213179D01*
X60738D01*
Y218316D01*
D02*
G37*
G36*
X230429Y219972D02*
X228059D01*
Y217504D01*
X228843D01*
X230768Y215579D01*
Y214386D01*
X227740D01*
Y213000D01*
X231890D01*
X236039D01*
Y214386D01*
X233011D01*
Y216043D01*
X232926Y216473D01*
X232683Y216836D01*
X232683Y216836D01*
X230429Y219090D01*
Y219972D01*
D02*
G37*
G36*
X44094Y218537D02*
X43373Y218442D01*
X42700Y218164D01*
X42122Y217720D01*
X41679Y217143D01*
X41400Y216470D01*
X41305Y215748D01*
X41400Y215026D01*
X41679Y214353D01*
X42122Y213776D01*
X42700Y213333D01*
X43373Y213054D01*
X44094Y212959D01*
X44816Y213054D01*
X45489Y213333D01*
X46067Y213776D01*
X46510Y214353D01*
X46789Y215026D01*
X46884Y215748D01*
X46789Y216470D01*
X46510Y217143D01*
X46067Y217720D01*
X45489Y218164D01*
X44816Y218442D01*
X44094Y218537D01*
D02*
G37*
G36*
X57768Y211630D02*
X55398D01*
Y210154D01*
X55318Y210081D01*
X54678Y210155D01*
X54665Y210175D01*
X53970Y210640D01*
X53651Y210703D01*
Y208661D01*
Y206620D01*
X53970Y206683D01*
X54665Y207147D01*
X54678Y207168D01*
X55318Y207242D01*
X55398Y207169D01*
Y205693D01*
X57768D01*
Y208661D01*
Y211630D01*
D02*
G37*
G36*
X175697Y212936D02*
Y209515D01*
X179118D01*
X179048Y210047D01*
X178650Y211008D01*
X178016Y211834D01*
X177190Y212468D01*
X176229Y212866D01*
X175697Y212936D01*
D02*
G37*
G36*
X174697D02*
X174165Y212866D01*
X173203Y212468D01*
X172378Y211834D01*
X171744Y211008D01*
X171346Y210047D01*
X171276Y209515D01*
X174697D01*
Y212936D01*
D02*
G37*
G36*
X113887Y218317D02*
X108947D01*
Y213179D01*
X110499D01*
Y211229D01*
X108947D01*
Y209185D01*
X100672D01*
X100651Y209349D01*
X100233Y210357D01*
X99569Y211223D01*
X98704Y211887D01*
X97696Y212304D01*
X96614Y212447D01*
X95533Y212304D01*
X94525Y211887D01*
X93659Y211223D01*
X92995Y210357D01*
X92577Y209349D01*
X92435Y208268D01*
X92577Y207186D01*
X92995Y206178D01*
X93659Y205313D01*
X94525Y204649D01*
X95533Y204231D01*
X96614Y204089D01*
X97696Y204231D01*
X98704Y204649D01*
X99569Y205313D01*
X100233Y206178D01*
X100651Y207186D01*
X100672Y207350D01*
X108947D01*
Y206092D01*
X110499D01*
Y177166D01*
X110569Y176814D01*
X110768Y176517D01*
X125729Y161556D01*
X126027Y161357D01*
X126378Y161287D01*
X132471D01*
Y159735D01*
X137608D01*
Y161287D01*
X137795D01*
X138146Y161357D01*
X138444Y161556D01*
X139384Y162496D01*
X139847Y162305D01*
Y162015D01*
X147555D01*
Y163401D01*
X147155D01*
Y167707D01*
Y170679D01*
X144618D01*
Y175604D01*
X145262Y176248D01*
X147530D01*
Y174596D01*
X152470D01*
Y179733D01*
X147530D01*
Y178083D01*
X144882D01*
X144531Y178013D01*
X144233Y177814D01*
X143052Y176633D01*
X142853Y176335D01*
X142783Y175984D01*
Y170679D01*
X140246D01*
Y168058D01*
X139746Y167850D01*
X138444Y169153D01*
X138146Y169352D01*
X137795Y169422D01*
X137607D01*
Y170974D01*
X135956D01*
Y173765D01*
X136264Y173971D01*
X136640Y174533D01*
X136772Y175196D01*
X136640Y175859D01*
X136264Y176422D01*
X135702Y176798D01*
X135039Y176929D01*
X134375Y176798D01*
X133813Y176422D01*
X133437Y175859D01*
X133305Y175196D01*
X133437Y174533D01*
X133813Y173971D01*
X134121Y173765D01*
Y170974D01*
X132470D01*
Y166034D01*
X137607D01*
Y166741D01*
X138069Y166932D01*
X139016Y165985D01*
X139314Y165786D01*
X139665Y165716D01*
X140246D01*
Y164992D01*
X139665D01*
X139314Y164923D01*
X139016Y164724D01*
X138070Y163777D01*
X137608Y163968D01*
Y164675D01*
X132471D01*
Y163122D01*
X126758D01*
X112335Y177546D01*
Y206092D01*
X113887D01*
Y211229D01*
X112335D01*
Y213179D01*
X113887D01*
Y218317D01*
D02*
G37*
G36*
X61138Y211630D02*
X58768D01*
Y209161D01*
X61138D01*
Y211630D01*
D02*
G37*
G36*
X117217D02*
X114847D01*
Y209161D01*
X117217D01*
Y211630D01*
D02*
G37*
G36*
X52651Y210703D02*
X52331Y210640D01*
X51637Y210175D01*
X51172Y209481D01*
X51109Y209161D01*
X52651D01*
Y210703D01*
D02*
G37*
G36*
X123333Y210703D02*
Y209161D01*
X124875D01*
X124811Y209481D01*
X124347Y210175D01*
X123653Y210639D01*
X123333Y210703D01*
D02*
G37*
G36*
X28453Y211795D02*
Y208374D01*
X31874D01*
X31804Y208906D01*
X31405Y209868D01*
X30772Y210693D01*
X29946Y211327D01*
X28985Y211725D01*
X28453Y211795D01*
D02*
G37*
G36*
X27453D02*
X26921Y211725D01*
X25959Y211327D01*
X25134Y210693D01*
X24500Y209868D01*
X24102Y208906D01*
X24032Y208374D01*
X27453D01*
Y211795D01*
D02*
G37*
G36*
X52651Y208161D02*
X51109D01*
X51172Y207842D01*
X51637Y207147D01*
X52331Y206683D01*
X52651Y206620D01*
Y208161D01*
D02*
G37*
G36*
X124875Y208161D02*
X123333D01*
Y206619D01*
X123653Y206683D01*
X124347Y207147D01*
X124811Y207842D01*
X124875Y208161D01*
D02*
G37*
G36*
X120587Y211630D02*
X118217D01*
Y208661D01*
Y205693D01*
X120587D01*
Y207168D01*
X120666Y207241D01*
X121306Y207167D01*
X121319Y207147D01*
X122014Y206683D01*
X122333Y206619D01*
Y208661D01*
Y210703D01*
X122014Y210639D01*
X121319Y210175D01*
X121306Y210156D01*
X120666Y210081D01*
X120587Y210154D01*
Y211630D01*
D02*
G37*
G36*
X117217Y208161D02*
X114847D01*
Y205693D01*
X117217D01*
Y208161D01*
D02*
G37*
G36*
X61138D02*
X58768D01*
Y205693D01*
X61138D01*
Y208161D01*
D02*
G37*
G36*
X165354Y212598D02*
X164427Y212476D01*
X163563Y212118D01*
X162820Y211549D01*
X162251Y210807D01*
X161893Y209943D01*
X161771Y209015D01*
X161893Y208088D01*
X162251Y207223D01*
X162820Y206481D01*
X163563Y205912D01*
X164427Y205554D01*
X165354Y205432D01*
X166282Y205554D01*
X167146Y205912D01*
X167888Y206481D01*
X168458Y207223D01*
X168816Y208088D01*
X168938Y209015D01*
X168816Y209943D01*
X168458Y210807D01*
X167888Y211549D01*
X167146Y212118D01*
X166282Y212476D01*
X165354Y212598D01*
D02*
G37*
G36*
X155512D02*
X154584Y212476D01*
X153720Y212118D01*
X152978Y211549D01*
X152409Y210807D01*
X152050Y209943D01*
X151928Y209015D01*
X152050Y208088D01*
X152409Y207223D01*
X152978Y206481D01*
X153720Y205912D01*
X154584Y205554D01*
X155512Y205432D01*
X156439Y205554D01*
X157304Y205912D01*
X158046Y206481D01*
X158615Y207223D01*
X158973Y208088D01*
X159095Y209015D01*
X158973Y209943D01*
X158615Y210807D01*
X158046Y211549D01*
X157304Y212118D01*
X156439Y212476D01*
X155512Y212598D01*
D02*
G37*
G36*
X145669D02*
X144742Y212476D01*
X143878Y212118D01*
X143135Y211549D01*
X142566Y210807D01*
X142208Y209943D01*
X142086Y209015D01*
X142208Y208088D01*
X142566Y207223D01*
X143135Y206481D01*
X143878Y205912D01*
X144742Y205554D01*
X145669Y205432D01*
X146597Y205554D01*
X147461Y205912D01*
X148203Y206481D01*
X148773Y207223D01*
X149131Y208088D01*
X149253Y209015D01*
X149131Y209943D01*
X148773Y210807D01*
X148203Y211549D01*
X147461Y212118D01*
X146597Y212476D01*
X145669Y212598D01*
D02*
G37*
G36*
X174697Y208515D02*
X171276D01*
X171346Y207983D01*
X171744Y207022D01*
X172378Y206196D01*
X173203Y205562D01*
X174165Y205164D01*
X174697Y205094D01*
Y208515D01*
D02*
G37*
G36*
X179118D02*
X175697D01*
Y205094D01*
X176229Y205164D01*
X177190Y205562D01*
X178016Y206196D01*
X178650Y207022D01*
X179048Y207983D01*
X179118Y208515D01*
D02*
G37*
G36*
X86614Y212447D02*
X85533Y212304D01*
X84525Y211887D01*
X83659Y211223D01*
X82995Y210357D01*
X82578Y209349D01*
X82435Y208268D01*
X82578Y207186D01*
X82995Y206178D01*
X83659Y205313D01*
X84525Y204649D01*
X85533Y204231D01*
X86614Y204089D01*
X87696Y204231D01*
X88704Y204649D01*
X89569Y205313D01*
X90233Y206178D01*
X90651Y207186D01*
X90793Y208268D01*
X90651Y209349D01*
X90233Y210357D01*
X89569Y211223D01*
X88704Y211887D01*
X87696Y212304D01*
X86614Y212447D01*
D02*
G37*
G36*
X31874Y207374D02*
X28453D01*
Y203953D01*
X28985Y204023D01*
X29946Y204421D01*
X30772Y205055D01*
X31405Y205881D01*
X31804Y206842D01*
X31874Y207374D01*
D02*
G37*
G36*
X27453D02*
X24032D01*
X24102Y206842D01*
X24500Y205881D01*
X25134Y205055D01*
X25959Y204421D01*
X26921Y204023D01*
X27453Y203953D01*
Y207374D01*
D02*
G37*
G36*
X216643Y199418D02*
X211703D01*
Y194281D01*
X213051D01*
Y193028D01*
X212947Y192958D01*
X212572Y192396D01*
X212440Y191733D01*
X212464Y191610D01*
X197238Y176384D01*
X196995Y176020D01*
X196910Y175591D01*
X196910Y175591D01*
Y137909D01*
X196806Y137840D01*
X196430Y137277D01*
X196298Y136614D01*
X196430Y135951D01*
X196806Y135389D01*
X197368Y135013D01*
X198031Y134881D01*
X198695Y135013D01*
X199257Y135389D01*
X199633Y135951D01*
X199765Y136614D01*
X199633Y137277D01*
X199257Y137840D01*
X199153Y137909D01*
Y175127D01*
X214050Y190024D01*
X214173Y189999D01*
X214836Y190131D01*
X215399Y190507D01*
X215774Y191069D01*
X215906Y191733D01*
X215774Y192396D01*
X215399Y192958D01*
X215295Y193028D01*
Y194281D01*
X216643D01*
Y199418D01*
D02*
G37*
G36*
X232795Y189568D02*
X231868Y189446D01*
X231004Y189088D01*
X230261Y188518D01*
X229692Y187776D01*
X229334Y186912D01*
X229212Y185984D01*
X229334Y185057D01*
X229692Y184193D01*
X229698Y184185D01*
X221398Y175885D01*
X221199Y175587D01*
X221130Y175236D01*
Y155248D01*
X217480D01*
X217328Y155748D01*
X217656Y155967D01*
X218120Y156662D01*
X218183Y156981D01*
X216142D01*
Y157981D01*
X218183D01*
X218120Y158301D01*
X217656Y158995D01*
X217636Y159009D01*
X217561Y159649D01*
X217634Y159728D01*
X219110D01*
Y162098D01*
X216142D01*
Y162598D01*
X215642D01*
Y165469D01*
X213173D01*
Y163720D01*
X212598D01*
X212598Y163720D01*
X212169Y163635D01*
X211805Y163391D01*
X211805Y163391D01*
X210658Y162244D01*
X210055D01*
Y163008D01*
X209655D01*
Y165167D01*
X207027D01*
Y166465D01*
X208339Y167776D01*
X213573D01*
Y166428D01*
X218710D01*
Y171368D01*
X217263D01*
Y172720D01*
X217367Y172790D01*
X217743Y173352D01*
X217875Y174015D01*
X217743Y174678D01*
X217367Y175241D01*
X216805Y175617D01*
X216141Y175748D01*
X215478Y175617D01*
X214916Y175241D01*
X214540Y174678D01*
X214408Y174015D01*
X214540Y173352D01*
X214916Y172790D01*
X215020Y172720D01*
Y171368D01*
X213573D01*
Y170019D01*
X207874D01*
X207874Y170019D01*
X207445Y169934D01*
X207081Y169691D01*
X205112Y167722D01*
X204869Y167358D01*
X204784Y166929D01*
X204784Y166929D01*
Y165167D01*
X202156D01*
Y163008D01*
X201756D01*
Y161622D01*
X205906D01*
Y160622D01*
X201756D01*
Y159236D01*
X202156D01*
Y154518D01*
X209655D01*
Y154518D01*
X210155Y154689D01*
X213918Y150926D01*
X214216Y150727D01*
X214567Y150657D01*
X217860D01*
X218066Y150349D01*
X218628Y149973D01*
X219291Y149841D01*
X219955Y149973D01*
X220517Y150349D01*
X220630Y150518D01*
X221130Y150366D01*
Y149319D01*
X220630Y149051D01*
X220348Y149239D01*
X219685Y149371D01*
X219022Y149239D01*
X218459Y148863D01*
X218084Y148301D01*
X217952Y147638D01*
X218070Y147045D01*
Y127893D01*
X217037D01*
Y129341D01*
X212097D01*
Y124204D01*
X212953D01*
Y120285D01*
X211211D01*
Y117314D01*
Y114754D01*
Y112195D01*
Y109636D01*
X216939D01*
Y110204D01*
X218549D01*
X218755Y109896D01*
X219317Y109520D01*
X219981Y109388D01*
X220630Y109518D01*
X220719Y109531D01*
X221130Y109250D01*
Y71065D01*
X220719Y70783D01*
X220630Y70797D01*
X219980Y70926D01*
X219317Y70794D01*
X218755Y70419D01*
X218549Y70110D01*
X210246D01*
Y72622D01*
X210646D01*
Y73190D01*
X211282D01*
X211478Y72895D01*
X212173Y72431D01*
X212492Y72368D01*
Y74410D01*
Y76451D01*
X212173Y76388D01*
X211478Y75924D01*
X211150Y75433D01*
X210646D01*
Y76000D01*
X209161D01*
Y74311D01*
X208661D01*
Y73811D01*
X206441D01*
X206215Y73717D01*
X205017Y74915D01*
X204654Y75158D01*
X204271Y75234D01*
X203946Y75600D01*
X203946Y75600D01*
X203946Y75600D01*
X200778D01*
Y75433D01*
X199114D01*
X199114Y75433D01*
X198685Y75347D01*
X198321Y75104D01*
X197961Y74744D01*
X196269D01*
Y76092D01*
X191132D01*
Y74744D01*
X185474D01*
Y93107D01*
X185592Y93701D01*
X185460Y94364D01*
X185084Y94926D01*
X184522Y95302D01*
X183858Y95434D01*
X183195Y95302D01*
X182633Y94926D01*
X182257Y94364D01*
X182125Y93701D01*
X182243Y93107D01*
Y73622D01*
Y57480D01*
X182366Y56862D01*
X182716Y56338D01*
X183240Y55988D01*
X183858Y55865D01*
X184476Y55988D01*
X185001Y56338D01*
X185014Y56359D01*
X203937D01*
X203937Y56359D01*
X204366Y56444D01*
X204730Y56687D01*
X205710Y57667D01*
X209163D01*
Y62804D01*
X206444D01*
Y68403D01*
X206444Y68403D01*
X206359Y68832D01*
X206116Y69196D01*
X206116Y69196D01*
X205325Y69986D01*
X204961Y70229D01*
X204532Y70315D01*
X204346Y70746D01*
Y71761D01*
X204808Y71952D01*
X205801Y70959D01*
X206165Y70716D01*
X206594Y70630D01*
X206594Y70630D01*
X207077D01*
Y67904D01*
Y65345D01*
X210246D01*
Y65716D01*
X221130D01*
Y47230D01*
X216943Y43044D01*
X213360D01*
X213309Y43435D01*
X212971Y44251D01*
X212433Y44952D01*
X211732Y45490D01*
X210915Y45829D01*
X210039Y45944D01*
X209163Y45829D01*
X208347Y45490D01*
X207646Y44952D01*
X207108Y44251D01*
X206770Y43435D01*
X206655Y42559D01*
X206770Y41683D01*
X207108Y40867D01*
X207646Y40166D01*
X208347Y39628D01*
X209163Y39290D01*
X210039Y39174D01*
X210915Y39290D01*
X211732Y39628D01*
X212433Y40166D01*
X212971Y40867D01*
X213112Y41208D01*
X217323D01*
X217674Y41278D01*
X217972Y41477D01*
X222696Y46202D01*
X222895Y46499D01*
X222965Y46850D01*
Y66535D01*
Y67058D01*
X223465Y67342D01*
X223492Y67325D01*
Y37782D01*
X219305Y33595D01*
X213243D01*
X212971Y34251D01*
X212433Y34953D01*
X211732Y35490D01*
X210915Y35829D01*
X210039Y35944D01*
X209163Y35829D01*
X208347Y35490D01*
X207646Y34953D01*
X207108Y34251D01*
X206770Y33435D01*
X206655Y32559D01*
X206770Y31683D01*
X207108Y30867D01*
X207646Y30166D01*
X208347Y29628D01*
X209163Y29289D01*
X210039Y29174D01*
X210915Y29289D01*
X211732Y29628D01*
X212433Y30166D01*
X212971Y30867D01*
X213309Y31683D01*
X213319Y31760D01*
X219685D01*
X220036Y31829D01*
X220334Y32028D01*
X225058Y36753D01*
X225257Y37050D01*
X225327Y37402D01*
Y67860D01*
X225635Y68066D01*
X226011Y68628D01*
X226143Y69291D01*
X226011Y69955D01*
X225635Y70517D01*
X225327Y70723D01*
Y109592D01*
X225635Y109798D01*
X226011Y110360D01*
X226143Y111024D01*
X226011Y111687D01*
X225635Y112249D01*
X225327Y112455D01*
Y150143D01*
X225635Y150349D01*
X226011Y150911D01*
X226143Y151575D01*
X226011Y152238D01*
X225635Y152800D01*
X225327Y153006D01*
Y167218D01*
X230996Y172887D01*
X231004Y172881D01*
X231868Y172523D01*
X232795Y172401D01*
X233723Y172523D01*
X234587Y172881D01*
X235329Y173450D01*
X235899Y174193D01*
X236257Y175057D01*
X236379Y175984D01*
X236257Y176912D01*
X235899Y177776D01*
X235329Y178518D01*
X234587Y179088D01*
X233723Y179446D01*
X232795Y179568D01*
X231868Y179446D01*
X231004Y179088D01*
X230261Y178518D01*
X229692Y177776D01*
X229334Y176912D01*
X229212Y175984D01*
X229334Y175057D01*
X229692Y174193D01*
X229698Y174185D01*
X223761Y168247D01*
X223562Y167950D01*
X223492Y167598D01*
Y153541D01*
X223465Y153525D01*
X222965Y153808D01*
Y154331D01*
Y174856D01*
X230996Y182887D01*
X231004Y182881D01*
X231868Y182523D01*
X232795Y182401D01*
X233723Y182523D01*
X234587Y182881D01*
X235329Y183450D01*
X235899Y184193D01*
X236257Y185057D01*
X236379Y185984D01*
X236257Y186912D01*
X235899Y187776D01*
X235329Y188518D01*
X234587Y189088D01*
X233723Y189446D01*
X232795Y189568D01*
D02*
G37*
G36*
X60343Y182356D02*
Y180814D01*
X61884D01*
X61821Y181133D01*
X61357Y181828D01*
X60662Y182292D01*
X60343Y182356D01*
D02*
G37*
G36*
X59342D02*
X59023Y182292D01*
X58328Y181828D01*
X57864Y181133D01*
X57801Y180814D01*
X59342D01*
Y182356D01*
D02*
G37*
G36*
X67037Y218317D02*
X62097D01*
Y213179D01*
X63649D01*
Y211231D01*
X62097D01*
Y206094D01*
X67037D01*
Y207350D01*
X72471D01*
Y204124D01*
X74673D01*
Y182534D01*
X74365Y182328D01*
X73989Y181766D01*
X73857Y181102D01*
X73989Y180439D01*
X74365Y179877D01*
X74927Y179501D01*
X75590Y179369D01*
X76254Y179501D01*
X76816Y179877D01*
X77192Y180439D01*
X77324Y181102D01*
X77192Y181766D01*
X76816Y182328D01*
X76508Y182534D01*
Y204124D01*
X80757D01*
Y212411D01*
X72471D01*
Y209185D01*
X67037D01*
Y211231D01*
X65485D01*
Y213179D01*
X67037D01*
Y218317D01*
D02*
G37*
G36*
X61884Y179814D02*
X57801D01*
X57864Y179495D01*
X58328Y178800D01*
X58349Y178787D01*
X58423Y178146D01*
X58350Y178067D01*
X56874D01*
Y175697D01*
X59842D01*
X62811D01*
Y178067D01*
X61335D01*
X61262Y178146D01*
X61336Y178787D01*
X61357Y178800D01*
X61821Y179495D01*
X61884Y179814D01*
D02*
G37*
G36*
X25698Y176977D02*
X20758D01*
Y175530D01*
X19406D01*
X19336Y175635D01*
X18774Y176011D01*
X18110Y176143D01*
X17447Y176011D01*
X16885Y175635D01*
X16509Y175073D01*
X16377Y174409D01*
X16495Y173816D01*
Y126378D01*
X16618Y125760D01*
X16968Y125236D01*
X21377Y120826D01*
X21902Y120476D01*
X22520Y120353D01*
X39619D01*
X39692Y120177D01*
X40261Y119435D01*
X41004Y118865D01*
X41868Y118507D01*
X42795Y118385D01*
X43723Y118507D01*
X44587Y118865D01*
X45329Y119435D01*
X45899Y120177D01*
X46257Y121041D01*
X46379Y121968D01*
X46257Y122896D01*
X45899Y123760D01*
X45329Y124502D01*
X44587Y125072D01*
X43723Y125430D01*
X42795Y125552D01*
X41868Y125430D01*
X41004Y125072D01*
X40261Y124502D01*
X39692Y123760D01*
X39619Y123584D01*
X23189D01*
X19726Y127047D01*
Y173287D01*
X20758D01*
Y171840D01*
X25698D01*
Y176977D01*
D02*
G37*
G36*
X41348Y211427D02*
X34242D01*
Y204321D01*
X36674D01*
Y183240D01*
X30411Y176978D01*
X27057D01*
Y171841D01*
X30798D01*
X39213Y163426D01*
X39511Y163227D01*
X39862Y163157D01*
X65831D01*
Y162015D01*
X73539D01*
Y163401D01*
X73139D01*
Y167707D01*
Y170679D01*
X70603D01*
Y172455D01*
X74395Y176247D01*
X78238D01*
Y174596D01*
X83178D01*
Y179733D01*
X78238D01*
Y178082D01*
X74015D01*
X73664Y178013D01*
X73366Y177814D01*
X69036Y173484D01*
X68837Y173186D01*
X68767Y172835D01*
Y170679D01*
X66231D01*
Y167847D01*
X64947D01*
X63248Y169546D01*
X62950Y169745D01*
X62599Y169815D01*
X62412D01*
Y171367D01*
X57275D01*
Y169815D01*
X55324D01*
Y171368D01*
X50187D01*
Y166428D01*
X55324D01*
Y167980D01*
X57275D01*
Y166427D01*
X62412D01*
Y167133D01*
X62874Y167325D01*
X63918Y166280D01*
X64216Y166081D01*
X64567Y166012D01*
X66231D01*
Y164992D01*
X40242D01*
X31998Y173237D01*
Y175392D01*
X38588Y181983D01*
X38588Y181983D01*
X38831Y182346D01*
X38917Y182776D01*
Y204321D01*
X41348D01*
Y211427D01*
D02*
G37*
G36*
X62811Y174697D02*
X60343D01*
Y172327D01*
X62811D01*
Y174697D01*
D02*
G37*
G36*
X59342D02*
X56874D01*
Y172327D01*
X59342D01*
Y174697D01*
D02*
G37*
G36*
X108080Y172943D02*
X102943D01*
Y171390D01*
X100994D01*
Y172942D01*
X95857D01*
Y168002D01*
X100994D01*
Y169555D01*
X102943D01*
Y168003D01*
X108080D01*
Y169555D01*
X111037D01*
X112468Y168124D01*
Y64817D01*
X112160Y64612D01*
X111785Y64049D01*
X111653Y63386D01*
X111785Y62722D01*
X112160Y62160D01*
X112723Y61784D01*
X113386Y61652D01*
X114049Y61784D01*
X114611Y62160D01*
X114987Y62722D01*
X115119Y63386D01*
X114987Y64049D01*
X114611Y64612D01*
X114304Y64817D01*
Y168504D01*
X114234Y168855D01*
X114035Y169153D01*
X112066Y171121D01*
X111768Y171320D01*
X111417Y171390D01*
X108080D01*
Y172943D01*
D02*
G37*
G36*
X180127Y172943D02*
X174990D01*
Y171390D01*
X173041D01*
Y172942D01*
X167904D01*
Y168002D01*
X173041D01*
Y169555D01*
X174990D01*
Y168003D01*
X180127D01*
Y169700D01*
X181365D01*
X181760Y169305D01*
Y149069D01*
X181451Y148863D01*
X181076Y148301D01*
X180944Y147638D01*
X181076Y146975D01*
X181451Y146412D01*
X182014Y146036D01*
X182677Y145905D01*
X183341Y146036D01*
X183903Y146412D01*
X184279Y146975D01*
X184411Y147638D01*
X184279Y148301D01*
X183903Y148863D01*
X183595Y149069D01*
Y169685D01*
X183525Y170036D01*
X183326Y170334D01*
X182393Y171266D01*
X182096Y171465D01*
X181745Y171535D01*
X180127D01*
Y172943D01*
D02*
G37*
G36*
X158769Y179734D02*
X153829D01*
Y174597D01*
X158769D01*
Y175500D01*
X159231Y175691D01*
X160106Y174817D01*
Y170679D01*
X157569D01*
Y167755D01*
X156398D01*
X156398Y167755D01*
X155968Y167670D01*
X155605Y167427D01*
X155605Y167427D01*
X154325Y166148D01*
X154082Y165784D01*
X153997Y165355D01*
X153997Y165355D01*
Y156112D01*
X152648D01*
Y150975D01*
X157589D01*
Y152422D01*
X158940D01*
X159010Y152318D01*
X159572Y151942D01*
X160236Y151810D01*
X160899Y151942D01*
X161461Y152318D01*
X161837Y152880D01*
X161969Y153544D01*
X161837Y154207D01*
X161461Y154769D01*
X160899Y155145D01*
X160236Y155277D01*
X159572Y155145D01*
X159010Y154769D01*
X158940Y154665D01*
X157589D01*
Y156112D01*
X156240D01*
Y164890D01*
X156862Y165512D01*
X157569D01*
Y163401D01*
X157169D01*
Y162015D01*
X161024D01*
X164878D01*
Y163157D01*
X167905D01*
Y161703D01*
X173042D01*
Y166643D01*
X167905D01*
Y164992D01*
X164478D01*
Y167707D01*
Y170679D01*
X161941D01*
Y175197D01*
X161871Y175548D01*
X161672Y175846D01*
X159704Y177814D01*
X159406Y178013D01*
X159055Y178083D01*
X158769D01*
Y179734D01*
D02*
G37*
G36*
X108480Y167043D02*
X106012D01*
Y164673D01*
X108480D01*
Y167043D01*
D02*
G37*
G36*
X105012D02*
X102543D01*
Y164673D01*
X105012D01*
Y167043D01*
D02*
G37*
G36*
X180528Y167043D02*
X178059D01*
Y164673D01*
X180528D01*
Y167043D01*
D02*
G37*
G36*
X177059D02*
X174591D01*
Y164673D01*
X177059D01*
Y167043D01*
D02*
G37*
G36*
X195095Y165567D02*
X191445D01*
Y164181D01*
X195095D01*
Y165567D01*
D02*
G37*
G36*
X120187Y218317D02*
X115247D01*
Y213180D01*
X120187D01*
Y214627D01*
X122369D01*
X128012Y208984D01*
Y167043D01*
X127908Y166974D01*
X127532Y166411D01*
X127401Y165748D01*
X127532Y165085D01*
X127908Y164522D01*
X128471Y164147D01*
X129134Y164015D01*
X129797Y164147D01*
X130359Y164522D01*
X130735Y165085D01*
X130867Y165748D01*
X130735Y166411D01*
X130359Y166974D01*
X130255Y167043D01*
Y209449D01*
X130255Y209449D01*
X130170Y209878D01*
X129927Y210242D01*
X129927Y210242D01*
X123627Y216542D01*
X123263Y216785D01*
X122834Y216870D01*
X122834Y216870D01*
X120187D01*
Y218317D01*
D02*
G37*
G36*
X219110Y165469D02*
X216642D01*
Y163098D01*
X219110D01*
Y165469D01*
D02*
G37*
G36*
X263386Y170040D02*
X262458Y169918D01*
X261594Y169560D01*
X260852Y168991D01*
X260282Y168248D01*
X259925Y167384D01*
X259802Y166457D01*
X259925Y165529D01*
X260282Y164665D01*
X260852Y163923D01*
X261594Y163353D01*
X262458Y162995D01*
X263386Y162873D01*
X264313Y162995D01*
X265177Y163353D01*
X265920Y163923D01*
X266489Y164665D01*
X266847Y165529D01*
X266969Y166457D01*
X266847Y167384D01*
X266489Y168248D01*
X265920Y168991D01*
X265177Y169560D01*
X264313Y169918D01*
X263386Y170040D01*
D02*
G37*
G36*
X232795Y169568D02*
X231868Y169446D01*
X231004Y169088D01*
X230261Y168518D01*
X229692Y167776D01*
X229334Y166912D01*
X229212Y165984D01*
X229334Y165057D01*
X229692Y164193D01*
X230261Y163450D01*
X231004Y162881D01*
X231868Y162523D01*
X232795Y162401D01*
X233723Y162523D01*
X234587Y162881D01*
X235329Y163450D01*
X235899Y164193D01*
X236257Y165057D01*
X236379Y165984D01*
X236257Y166912D01*
X235899Y167776D01*
X235329Y168518D01*
X234587Y169088D01*
X233723Y169446D01*
X232795Y169568D01*
D02*
G37*
G36*
X89478Y179734D02*
X84538D01*
Y174597D01*
X86090D01*
Y170679D01*
X83553D01*
Y167552D01*
X81988D01*
X81637Y167482D01*
X81339Y167283D01*
X74039Y159983D01*
X73539Y160190D01*
Y161015D01*
X70185D01*
Y159630D01*
X72979D01*
X73186Y159130D01*
X72185Y158129D01*
X71987Y157831D01*
X71917Y157480D01*
Y156111D01*
X70364D01*
Y154664D01*
X69012D01*
X68943Y154768D01*
X68380Y155144D01*
X67717Y155276D01*
X67054Y155144D01*
X66492Y154768D01*
X66116Y154206D01*
X65984Y153543D01*
X66116Y152879D01*
X66492Y152317D01*
X67054Y151941D01*
X67717Y151809D01*
X68380Y151941D01*
X68943Y152317D01*
X69012Y152421D01*
X70364D01*
Y150974D01*
X75304D01*
Y156111D01*
X73752D01*
Y157100D01*
X82368Y165716D01*
X83553D01*
Y163401D01*
X83153D01*
Y162430D01*
X82818Y162363D01*
X82520Y162164D01*
X78485Y158129D01*
X78286Y157832D01*
X78216Y157480D01*
Y156512D01*
X76264D01*
Y154043D01*
X79134D01*
Y153543D01*
X79634D01*
Y150575D01*
X82004D01*
Y152050D01*
X82083Y152123D01*
X82724Y152049D01*
X82737Y152029D01*
X83431Y151565D01*
X83751Y151501D01*
Y153543D01*
Y155585D01*
X83431Y155521D01*
X82737Y155057D01*
X82724Y155037D01*
X82083Y154963D01*
X82004Y155036D01*
Y156512D01*
X80051D01*
Y157100D01*
X82749Y159797D01*
X83154Y159630D01*
Y159630D01*
X86508D01*
Y161515D01*
X87008D01*
Y162015D01*
X90862D01*
Y163157D01*
X95857D01*
Y161703D01*
X100994D01*
Y166643D01*
X95857D01*
Y164992D01*
X90462D01*
Y167707D01*
Y170679D01*
X87925D01*
Y174597D01*
X89478D01*
Y179734D01*
D02*
G37*
G36*
X180528Y163673D02*
X177559D01*
X174591D01*
Y161303D01*
X176066D01*
X176139Y161223D01*
X176064Y160583D01*
X176045Y160570D01*
X175783Y160178D01*
X165916D01*
X165078Y161015D01*
X161524D01*
Y159630D01*
X163292D01*
X164658Y158263D01*
X164658Y158263D01*
X165022Y158020D01*
X165451Y157935D01*
X175783D01*
X176045Y157542D01*
X176739Y157078D01*
X177059Y157015D01*
Y159056D01*
X177559D01*
Y159556D01*
X179600D01*
X179537Y159876D01*
X179073Y160570D01*
X179053Y160583D01*
X178979Y161223D01*
X179052Y161303D01*
X180528D01*
Y163673D01*
D02*
G37*
G36*
X90862Y161015D02*
X87508D01*
Y159630D01*
X90862D01*
Y161015D01*
D02*
G37*
G36*
X69185Y161015D02*
X65831D01*
Y159630D01*
X69185D01*
Y161015D01*
D02*
G37*
G36*
X160524Y161015D02*
X157169D01*
Y159630D01*
X160524D01*
Y161015D01*
D02*
G37*
G36*
X143201D02*
X139847D01*
Y159630D01*
X143201D01*
Y161015D01*
D02*
G37*
G36*
X108480Y163673D02*
X105512D01*
X102543D01*
Y161303D01*
X104018D01*
X104092Y161223D01*
X104017Y160583D01*
X103998Y160570D01*
X103533Y159876D01*
X103470Y159556D01*
X107553D01*
X107490Y159876D01*
X107026Y160570D01*
X107006Y160583D01*
X106931Y161223D01*
X107005Y161303D01*
X108480D01*
Y163673D01*
D02*
G37*
G36*
X107553Y158556D02*
X106011D01*
Y157015D01*
X106331Y157078D01*
X107026Y157542D01*
X107490Y158237D01*
X107553Y158556D01*
D02*
G37*
G36*
X105011D02*
X103470D01*
X103533Y158237D01*
X103998Y157542D01*
X104692Y157078D01*
X105011Y157015D01*
Y158556D01*
D02*
G37*
G36*
X179600Y158556D02*
X178059D01*
Y157015D01*
X178378Y157078D01*
X179073Y157542D01*
X179537Y158237D01*
X179600Y158556D01*
D02*
G37*
G36*
X233295Y159905D02*
Y156484D01*
X236716D01*
X236646Y157016D01*
X236248Y157978D01*
X235614Y158803D01*
X234789Y159437D01*
X233827Y159835D01*
X233295Y159905D01*
D02*
G37*
G36*
X232295D02*
X231763Y159835D01*
X230802Y159437D01*
X229976Y158803D01*
X229343Y157978D01*
X228944Y157016D01*
X228874Y156484D01*
X232295D01*
Y159905D01*
D02*
G37*
G36*
X147755Y161015D02*
X144201D01*
Y159630D01*
X145969D01*
X148091Y157508D01*
Y156512D01*
X145949D01*
Y155035D01*
X145869Y154962D01*
X145229Y155037D01*
X145216Y155057D01*
X144521Y155522D01*
X144202Y155585D01*
Y153543D01*
Y151502D01*
X144521Y151565D01*
X145216Y152029D01*
X145229Y152049D01*
X145869Y152124D01*
X145949Y152051D01*
Y150575D01*
X148319D01*
Y153543D01*
X148819D01*
Y154043D01*
X151689D01*
Y156512D01*
X150334D01*
Y157972D01*
X150334Y157972D01*
X150249Y158401D01*
X150006Y158765D01*
X150006Y158765D01*
X147755Y161015D01*
D02*
G37*
G36*
X195095Y155504D02*
X191445D01*
Y154118D01*
X195095D01*
Y155504D01*
D02*
G37*
G36*
X143202Y155585D02*
X142882Y155522D01*
X142188Y155057D01*
X141724Y154363D01*
X141660Y154043D01*
X143202D01*
Y155585D01*
D02*
G37*
G36*
X84751Y155585D02*
Y154043D01*
X86292D01*
X86229Y154362D01*
X85765Y155057D01*
X85070Y155521D01*
X84751Y155585D01*
D02*
G37*
G36*
X263386Y160040D02*
X262458Y159918D01*
X261594Y159560D01*
X260852Y158991D01*
X260282Y158248D01*
X259925Y157384D01*
X259802Y156457D01*
X259925Y155529D01*
X260282Y154665D01*
X260852Y153923D01*
X261594Y153353D01*
X262458Y152995D01*
X263386Y152873D01*
X264313Y152995D01*
X265177Y153353D01*
X265920Y153923D01*
X266489Y154665D01*
X266847Y155529D01*
X266969Y156457D01*
X266847Y157384D01*
X266489Y158248D01*
X265920Y158991D01*
X265177Y159560D01*
X264313Y159918D01*
X263386Y160040D01*
D02*
G37*
G36*
X232295Y155484D02*
X228874D01*
X228944Y154952D01*
X229343Y153991D01*
X229976Y153165D01*
X230802Y152532D01*
X231763Y152133D01*
X232295Y152063D01*
Y155484D01*
D02*
G37*
G36*
X236716D02*
X233295D01*
Y152063D01*
X233827Y152133D01*
X234789Y152532D01*
X235614Y153165D01*
X236248Y153991D01*
X236646Y154952D01*
X236716Y155484D01*
D02*
G37*
G36*
X143202Y153043D02*
X141660D01*
X141724Y152724D01*
X142188Y152029D01*
X142882Y151565D01*
X143202Y151502D01*
Y153043D01*
D02*
G37*
G36*
X86292Y153043D02*
X84751D01*
Y151501D01*
X85070Y151565D01*
X85765Y152029D01*
X86229Y152724D01*
X86292Y153043D01*
D02*
G37*
G36*
X78634Y153043D02*
X76264D01*
Y150575D01*
X78634D01*
Y153043D01*
D02*
G37*
G36*
X151689Y153043D02*
X149319D01*
Y150575D01*
X151689D01*
Y153043D01*
D02*
G37*
G36*
X190657Y150861D02*
Y149319D01*
X192199D01*
X192136Y149638D01*
X191672Y150333D01*
X190977Y150797D01*
X190657Y150861D01*
D02*
G37*
G36*
X46348Y155521D02*
X39243D01*
Y148416D01*
X46348D01*
Y155521D01*
D02*
G37*
G36*
X192199Y148319D02*
X190657D01*
Y146777D01*
X190977Y146841D01*
X191672Y147305D01*
X192136Y148000D01*
X192199Y148319D01*
D02*
G37*
G36*
X190445Y165567D02*
X186795D01*
Y165172D01*
X186516Y164803D01*
X186086Y164717D01*
X185723Y164474D01*
X185723Y164474D01*
X184640Y163391D01*
X184397Y163028D01*
X184311Y162598D01*
X184311Y162598D01*
Y161024D01*
X184311Y161024D01*
X184311Y161024D01*
Y158661D01*
X184311Y158661D01*
X184311Y158661D01*
Y155906D01*
X184311Y155905D01*
X184311Y155905D01*
Y150787D01*
X184311Y150787D01*
X184397Y150358D01*
X184640Y149994D01*
X186609Y148026D01*
X186972Y147783D01*
X187402Y147697D01*
X187402Y147697D01*
X188381D01*
X188644Y147305D01*
X189338Y146841D01*
X189657Y146777D01*
Y148819D01*
Y150861D01*
X189338Y150797D01*
X188644Y150333D01*
X188381Y149941D01*
X187866D01*
X186555Y151252D01*
Y153718D01*
X186795Y154118D01*
X190445D01*
Y156004D01*
X190945D01*
Y156504D01*
X195095D01*
Y156677D01*
Y158063D01*
X190945D01*
Y159063D01*
X195095D01*
Y159236D01*
Y160622D01*
X190945D01*
Y161622D01*
X195095D01*
Y161795D01*
Y163181D01*
X190945D01*
Y163681D01*
X190445D01*
Y165567D01*
D02*
G37*
G36*
X263386Y150040D02*
X262458Y149918D01*
X261594Y149560D01*
X260852Y148990D01*
X260282Y148248D01*
X259925Y147384D01*
X259802Y146457D01*
X259925Y145529D01*
X260282Y144665D01*
X260852Y143923D01*
X261594Y143353D01*
X262458Y142995D01*
X263386Y142873D01*
X264313Y142995D01*
X265177Y143353D01*
X265920Y143923D01*
X266489Y144665D01*
X266847Y145529D01*
X266969Y146457D01*
X266847Y147384D01*
X266489Y148248D01*
X265920Y148990D01*
X265177Y149560D01*
X264313Y149918D01*
X263386Y150040D01*
D02*
G37*
G36*
X232795Y149568D02*
X231868Y149446D01*
X231004Y149088D01*
X230261Y148518D01*
X229692Y147776D01*
X229334Y146912D01*
X229212Y145984D01*
X229334Y145057D01*
X229692Y144193D01*
X230261Y143450D01*
X231004Y142881D01*
X231868Y142523D01*
X232795Y142401D01*
X233723Y142523D01*
X234587Y142881D01*
X235329Y143450D01*
X235899Y144193D01*
X236257Y145057D01*
X236379Y145984D01*
X236257Y146912D01*
X235899Y147776D01*
X235329Y148518D01*
X234587Y149088D01*
X233723Y149446D01*
X232795Y149568D01*
D02*
G37*
G36*
X42795Y145552D02*
X41868Y145430D01*
X41004Y145072D01*
X40261Y144502D01*
X39692Y143760D01*
X39334Y142896D01*
X39212Y141969D01*
X39334Y141041D01*
X39692Y140177D01*
X40261Y139435D01*
X41004Y138865D01*
X41868Y138507D01*
X42795Y138385D01*
X43723Y138507D01*
X44587Y138865D01*
X45329Y139435D01*
X45899Y140177D01*
X46257Y141041D01*
X46379Y141969D01*
X46257Y142896D01*
X45899Y143760D01*
X45329Y144502D01*
X44587Y145072D01*
X43723Y145430D01*
X42795Y145552D01*
D02*
G37*
G36*
X267339Y140409D02*
X263886D01*
Y136957D01*
X267339D01*
Y140409D01*
D02*
G37*
G36*
X262886D02*
X259433D01*
Y136957D01*
X262886D01*
Y140409D01*
D02*
G37*
G36*
X267339Y135957D02*
X263886D01*
Y132504D01*
X267339D01*
Y135957D01*
D02*
G37*
G36*
X262886D02*
X259433D01*
Y132504D01*
X262886D01*
Y135957D01*
D02*
G37*
G36*
X232795Y139568D02*
X231868Y139446D01*
X231004Y139088D01*
X230261Y138518D01*
X229692Y137776D01*
X229334Y136912D01*
X229212Y135984D01*
X229334Y135057D01*
X229692Y134193D01*
X230261Y133450D01*
X231004Y132881D01*
X231868Y132523D01*
X232795Y132401D01*
X233723Y132523D01*
X234587Y132881D01*
X235329Y133450D01*
X235899Y134193D01*
X236257Y135057D01*
X236379Y135984D01*
X236257Y136912D01*
X235899Y137776D01*
X235329Y138518D01*
X234587Y139088D01*
X233723Y139446D01*
X232795Y139568D01*
D02*
G37*
G36*
X42795Y135552D02*
X41868Y135430D01*
X41004Y135072D01*
X40261Y134502D01*
X39692Y133760D01*
X39334Y132896D01*
X39212Y131968D01*
X39334Y131041D01*
X39692Y130177D01*
X40261Y129435D01*
X41004Y128865D01*
X41868Y128507D01*
X42795Y128385D01*
X43723Y128507D01*
X44587Y128865D01*
X45329Y129435D01*
X45899Y130177D01*
X46257Y131041D01*
X46379Y131968D01*
X46257Y132896D01*
X45899Y133760D01*
X45329Y134502D01*
X44587Y135072D01*
X43723Y135430D01*
X42795Y135552D01*
D02*
G37*
G36*
X207768Y129740D02*
X205398D01*
Y128264D01*
X205318Y128191D01*
X204678Y128266D01*
X204665Y128286D01*
X203970Y128750D01*
X203651Y128813D01*
Y126772D01*
Y124730D01*
X203970Y124794D01*
X204665Y125258D01*
X204678Y125278D01*
X205318Y125353D01*
X205398Y125279D01*
Y123803D01*
X207146D01*
Y118181D01*
X201208Y112243D01*
X200213D01*
Y113007D01*
X199813D01*
Y117313D01*
Y120285D01*
X194085D01*
Y120285D01*
X193593Y120303D01*
X192184Y121712D01*
X191887Y121911D01*
X191535Y121981D01*
X190364D01*
Y122647D01*
X185227D01*
Y119479D01*
X190364D01*
Y120145D01*
X191155D01*
X193052Y118249D01*
X193350Y118050D01*
X193701Y117980D01*
X194085D01*
Y117158D01*
X193090D01*
X192866Y117381D01*
X192569Y117580D01*
X192217Y117650D01*
X190364D01*
Y118316D01*
X185227D01*
Y115148D01*
X190364D01*
Y115815D01*
X191837D01*
X192061Y115591D01*
X192358Y115392D01*
X192710Y115322D01*
X194085D01*
Y114803D01*
X193996D01*
X193567Y114717D01*
X193203Y114474D01*
X193203Y114474D01*
X190825Y112096D01*
X190363Y112288D01*
Y112707D01*
X185226D01*
Y111358D01*
X179922D01*
X179922Y111358D01*
X179492Y111273D01*
X179129Y111030D01*
X179129Y111030D01*
X176701Y108602D01*
X173750D01*
Y113966D01*
X164046D01*
Y101782D01*
X173750D01*
Y106359D01*
X177165D01*
X177165Y106359D01*
X177595Y106444D01*
X177958Y106687D01*
X180386Y109115D01*
X185226D01*
Y107766D01*
X190363D01*
Y108685D01*
X190551Y109115D01*
X190981Y109200D01*
X191345Y109443D01*
X193223Y111322D01*
X193685Y111131D01*
Y109236D01*
X196449D01*
Y111122D01*
X197449D01*
Y109236D01*
X200213D01*
Y110000D01*
X201673D01*
X201673Y110000D01*
X202102Y110085D01*
X202466Y110329D01*
X209061Y116923D01*
X209061Y116923D01*
X209304Y117287D01*
X209389Y117717D01*
X209389Y117717D01*
Y123803D01*
X211138D01*
Y126272D01*
X208268D01*
Y126772D01*
X207768D01*
Y129740D01*
D02*
G37*
G36*
X202651Y128813D02*
X202331Y128750D01*
X201637Y128286D01*
X201172Y127591D01*
X201109Y127272D01*
X202651D01*
Y128813D01*
D02*
G37*
G36*
X211138Y129740D02*
X208768D01*
Y127272D01*
X211138D01*
Y129740D01*
D02*
G37*
G36*
X202651Y126272D02*
X201109D01*
X201172Y125952D01*
X201637Y125258D01*
X202331Y124794D01*
X202651Y124730D01*
Y126272D01*
D02*
G37*
G36*
X232795Y129568D02*
X231868Y129446D01*
X231004Y129088D01*
X230261Y128518D01*
X229692Y127776D01*
X229334Y126912D01*
X229212Y125984D01*
X229334Y125057D01*
X229692Y124193D01*
X230261Y123450D01*
X231004Y122881D01*
X231868Y122523D01*
X232795Y122401D01*
X233723Y122523D01*
X234587Y122881D01*
X235329Y123450D01*
X235899Y124193D01*
X236257Y125057D01*
X236379Y125984D01*
X236257Y126912D01*
X235899Y127776D01*
X235329Y128518D01*
X234587Y129088D01*
X233723Y129446D01*
X232795Y129568D01*
D02*
G37*
G36*
Y119568D02*
X231868Y119446D01*
X231004Y119088D01*
X230261Y118518D01*
X229692Y117776D01*
X229334Y116912D01*
X229212Y115984D01*
X229334Y115057D01*
X229692Y114193D01*
X230261Y113450D01*
X231004Y112881D01*
X231868Y112523D01*
X232795Y112401D01*
X233723Y112523D01*
X234587Y112881D01*
X235329Y113450D01*
X235899Y114193D01*
X236257Y115057D01*
X236379Y115984D01*
X236257Y116912D01*
X235899Y117776D01*
X235329Y118518D01*
X234587Y119088D01*
X233723Y119446D01*
X232795Y119568D01*
D02*
G37*
G36*
X83398Y114366D02*
X78646D01*
Y108996D01*
X77367D01*
X77105Y109388D01*
X76410Y109852D01*
X76091Y109916D01*
Y107874D01*
Y105832D01*
X76410Y105896D01*
X77105Y106360D01*
X77367Y106753D01*
X78646D01*
Y101382D01*
X83398D01*
Y107874D01*
Y114366D01*
D02*
G37*
G36*
X42795Y115552D02*
X41868Y115430D01*
X41004Y115072D01*
X40261Y114502D01*
X39692Y113760D01*
X39334Y112896D01*
X39212Y111969D01*
X39334Y111041D01*
X39692Y110177D01*
X40261Y109435D01*
X41004Y108865D01*
X41868Y108507D01*
X42795Y108385D01*
X43723Y108507D01*
X44587Y108865D01*
X45329Y109435D01*
X45899Y110177D01*
X46257Y111041D01*
X46379Y111969D01*
X46257Y112896D01*
X45899Y113760D01*
X45329Y114502D01*
X44587Y115072D01*
X43723Y115430D01*
X42795Y115552D01*
D02*
G37*
G36*
X89150Y114366D02*
X84398D01*
Y108374D01*
X89150D01*
Y114366D01*
D02*
G37*
G36*
X75090Y109916D02*
X74771Y109852D01*
X74076Y109388D01*
X73612Y108693D01*
X73549Y108374D01*
X75090D01*
Y109916D01*
D02*
G37*
G36*
Y107374D02*
X73549D01*
X73612Y107055D01*
X74076Y106360D01*
X74771Y105896D01*
X75090Y105832D01*
Y107374D01*
D02*
G37*
G36*
X190764Y106807D02*
X188295D01*
Y104437D01*
X190764D01*
Y106807D01*
D02*
G37*
G36*
X187295D02*
X184827D01*
Y104437D01*
X187295D01*
Y106807D01*
D02*
G37*
G36*
X43295Y105889D02*
Y102469D01*
X46716D01*
X46646Y103000D01*
X46248Y103962D01*
X45614Y104788D01*
X44789Y105421D01*
X43827Y105819D01*
X43295Y105889D01*
D02*
G37*
G36*
X42295D02*
X41763Y105819D01*
X40802Y105421D01*
X39976Y104788D01*
X39343Y103962D01*
X38944Y103000D01*
X38874Y102469D01*
X42295D01*
Y105889D01*
D02*
G37*
G36*
X232795Y109568D02*
X231868Y109446D01*
X231004Y109088D01*
X230261Y108518D01*
X229692Y107776D01*
X229334Y106912D01*
X229212Y105984D01*
X229334Y105057D01*
X229692Y104193D01*
X230261Y103450D01*
X231004Y102881D01*
X231868Y102523D01*
X232795Y102401D01*
X233723Y102523D01*
X234587Y102881D01*
X235329Y103450D01*
X235899Y104193D01*
X236257Y105057D01*
X236379Y105984D01*
X236257Y106912D01*
X235899Y107776D01*
X235329Y108518D01*
X234587Y109088D01*
X233723Y109446D01*
X232795Y109568D01*
D02*
G37*
G36*
X89150Y107374D02*
X84398D01*
Y101382D01*
X89150D01*
Y107374D01*
D02*
G37*
G36*
X190764Y103437D02*
X187795D01*
X184827D01*
Y101067D01*
X186302D01*
X186375Y100987D01*
X186301Y100347D01*
X186281Y100334D01*
X185817Y99640D01*
X185753Y99320D01*
X189837D01*
X189773Y99640D01*
X189309Y100334D01*
X189289Y100347D01*
X189215Y100987D01*
X189288Y101067D01*
X190764D01*
Y103437D01*
D02*
G37*
G36*
X46716Y101469D02*
X43295D01*
Y98048D01*
X43827Y98118D01*
X44789Y98516D01*
X45614Y99149D01*
X46248Y99975D01*
X46646Y100937D01*
X46716Y101469D01*
D02*
G37*
G36*
X42295D02*
X38874D01*
X38944Y100937D01*
X39343Y99975D01*
X39976Y99149D01*
X40802Y98516D01*
X41763Y98118D01*
X42295Y98048D01*
Y101469D01*
D02*
G37*
G36*
X189837Y98320D02*
X188295D01*
Y96779D01*
X188614Y96842D01*
X189309Y97306D01*
X189773Y98001D01*
X189837Y98320D01*
D02*
G37*
G36*
X187295D02*
X185753D01*
X185817Y98001D01*
X186281Y97306D01*
X186976Y96842D01*
X187295Y96779D01*
Y98320D01*
D02*
G37*
G36*
X43295Y95890D02*
Y92469D01*
X46716D01*
X46646Y93000D01*
X46248Y93962D01*
X45614Y94788D01*
X44789Y95421D01*
X43827Y95819D01*
X43295Y95890D01*
D02*
G37*
G36*
X42295D02*
X41763Y95819D01*
X40802Y95421D01*
X39976Y94788D01*
X39343Y93962D01*
X38944Y93000D01*
X38874Y92469D01*
X42295D01*
Y95890D01*
D02*
G37*
G36*
X236348Y99537D02*
X229242D01*
Y92431D01*
X236348D01*
Y99537D01*
D02*
G37*
G36*
X66823Y91551D02*
X64453D01*
Y89083D01*
X66823D01*
Y91551D01*
D02*
G37*
G36*
X72940Y90624D02*
Y89082D01*
X74481D01*
X74418Y89402D01*
X73954Y90096D01*
X73259Y90561D01*
X72940Y90624D01*
D02*
G37*
G36*
X46716Y91469D02*
X43295D01*
Y88047D01*
X43827Y88117D01*
X44789Y88516D01*
X45614Y89149D01*
X46248Y89975D01*
X46646Y90937D01*
X46716Y91469D01*
D02*
G37*
G36*
X42295D02*
X38874D01*
X38944Y90937D01*
X39343Y89975D01*
X39976Y89149D01*
X40802Y88516D01*
X41763Y88117D01*
X42295Y88047D01*
Y91469D01*
D02*
G37*
G36*
X74481Y88082D02*
X72940D01*
Y86541D01*
X73259Y86604D01*
X73954Y87068D01*
X74418Y87763D01*
X74481Y88082D01*
D02*
G37*
G36*
X70193Y91551D02*
X67823D01*
Y88583D01*
Y85614D01*
X70193D01*
Y87089D01*
X70272Y87162D01*
X70912Y87088D01*
X70926Y87068D01*
X71620Y86604D01*
X71940Y86541D01*
Y88582D01*
Y90624D01*
X71620Y90561D01*
X70926Y90096D01*
X70912Y90077D01*
X70272Y90002D01*
X70193Y90076D01*
Y91551D01*
D02*
G37*
G36*
X66823Y88083D02*
X64453D01*
Y85614D01*
X66823D01*
Y88083D01*
D02*
G37*
G36*
X72940Y83144D02*
Y81602D01*
X74482D01*
X74418Y81922D01*
X73954Y82616D01*
X73259Y83081D01*
X72940Y83144D01*
D02*
G37*
G36*
X66823Y84071D02*
X64453D01*
Y81602D01*
X66823D01*
Y84071D01*
D02*
G37*
G36*
X74482Y80602D02*
X72940D01*
Y79061D01*
X73259Y79124D01*
X73954Y79588D01*
X74418Y80283D01*
X74482Y80602D01*
D02*
G37*
G36*
X70193Y84071D02*
X67823D01*
Y81102D01*
Y78134D01*
X70193D01*
Y79610D01*
X70272Y79683D01*
X70913Y79608D01*
X70926Y79588D01*
X71621Y79124D01*
X71940Y79061D01*
Y81102D01*
Y83144D01*
X71621Y83081D01*
X70926Y82616D01*
X70913Y82596D01*
X70272Y82521D01*
X70193Y82595D01*
Y84071D01*
D02*
G37*
G36*
X42795Y85552D02*
X41868Y85430D01*
X41004Y85072D01*
X40261Y84502D01*
X39692Y83760D01*
X39334Y82896D01*
X39212Y81968D01*
X39334Y81041D01*
X39692Y80177D01*
X40261Y79435D01*
X41004Y78865D01*
X41868Y78507D01*
X42795Y78385D01*
X43723Y78507D01*
X44587Y78865D01*
X45329Y79435D01*
X45899Y80177D01*
X46257Y81041D01*
X46379Y81968D01*
X46257Y82896D01*
X45899Y83760D01*
X45329Y84502D01*
X44587Y85072D01*
X43723Y85430D01*
X42795Y85552D01*
D02*
G37*
G36*
X66823Y80602D02*
X64453D01*
Y78134D01*
X66823D01*
Y80602D01*
D02*
G37*
G36*
X26190Y78455D02*
X21053D01*
Y76902D01*
X13591D01*
Y78455D01*
X8455D01*
Y73514D01*
X13591D01*
Y75067D01*
X21053D01*
Y73514D01*
X26190D01*
Y75067D01*
X28096D01*
X28302Y74759D01*
X28864Y74383D01*
X29528Y74251D01*
X30191Y74383D01*
X30753Y74759D01*
X31129Y75321D01*
X31261Y75984D01*
X31129Y76648D01*
X30753Y77210D01*
X30191Y77586D01*
X29528Y77718D01*
X28864Y77586D01*
X28302Y77210D01*
X28096Y76902D01*
X26190D01*
Y78455D01*
D02*
G37*
G36*
X232795Y83583D02*
X231868Y83461D01*
X231004Y83103D01*
X230261Y82534D01*
X229692Y81792D01*
X229334Y80927D01*
X229212Y80000D01*
X229334Y79073D01*
X229692Y78208D01*
X230261Y77466D01*
X231004Y76897D01*
X231868Y76539D01*
X232795Y76417D01*
X233723Y76539D01*
X234587Y76897D01*
X235329Y77466D01*
X235899Y78208D01*
X236257Y79073D01*
X236379Y80000D01*
X236257Y80927D01*
X235899Y81792D01*
X235329Y82534D01*
X234587Y83103D01*
X233723Y83461D01*
X232795Y83583D01*
D02*
G37*
G36*
X213492Y76451D02*
Y74910D01*
X215034D01*
X214970Y75229D01*
X214506Y75924D01*
X213811Y76388D01*
X213492Y76451D01*
D02*
G37*
G36*
X208161Y76000D02*
X206677D01*
Y74811D01*
X208161D01*
Y76000D01*
D02*
G37*
G36*
X215034Y73909D02*
X213492D01*
Y72368D01*
X213811Y72431D01*
X214506Y72895D01*
X214970Y73590D01*
X215034Y73909D01*
D02*
G37*
G36*
X51181Y149371D02*
X50518Y149239D01*
X49955Y148863D01*
X49580Y148301D01*
X49448Y147638D01*
X49580Y146975D01*
X49955Y146412D01*
X50264Y146206D01*
Y30734D01*
X44595Y25066D01*
X44587Y25072D01*
X43723Y25430D01*
X42795Y25552D01*
X41868Y25430D01*
X41004Y25072D01*
X40261Y24502D01*
X39692Y23760D01*
X39334Y22896D01*
X39212Y21969D01*
X39334Y21041D01*
X39692Y20177D01*
X40261Y19435D01*
X41004Y18865D01*
X41868Y18507D01*
X42795Y18385D01*
X43723Y18507D01*
X44587Y18865D01*
X45329Y19435D01*
X45899Y20177D01*
X46257Y21041D01*
X46379Y21969D01*
X46257Y22896D01*
X45899Y23760D01*
X45893Y23768D01*
X51732Y29607D01*
X52117Y29501D01*
X52232Y29419D01*
Y16128D01*
X48990Y12886D01*
X46258D01*
X46257Y12896D01*
X45899Y13760D01*
X45329Y14502D01*
X44587Y15072D01*
X43723Y15430D01*
X42795Y15552D01*
X41868Y15430D01*
X41004Y15072D01*
X40996Y15066D01*
X35563Y20498D01*
Y46063D01*
X35493Y46414D01*
X35294Y46712D01*
X13592Y68414D01*
Y72155D01*
X8455D01*
Y67215D01*
X12196D01*
X33728Y45683D01*
Y20118D01*
X33798Y19767D01*
X33997Y19469D01*
X39698Y13768D01*
X39692Y13760D01*
X39334Y12896D01*
X39212Y11969D01*
X39334Y11041D01*
X39692Y10177D01*
X40261Y9435D01*
X41004Y8865D01*
X41868Y8507D01*
X42795Y8385D01*
X43723Y8507D01*
X44587Y8865D01*
X45329Y9435D01*
X45899Y10177D01*
X46257Y11041D01*
X46258Y11051D01*
X49370D01*
X49721Y11121D01*
X50019Y11320D01*
X53799Y15099D01*
X53997Y15397D01*
X54067Y15748D01*
Y65070D01*
X54567Y65298D01*
X55087Y64951D01*
X55406Y64887D01*
Y66929D01*
Y68971D01*
X55087Y68907D01*
X54567Y68560D01*
X54067Y68788D01*
Y70880D01*
X56286Y73098D01*
X58215D01*
X58219Y73097D01*
X58553D01*
Y71447D01*
X63493D01*
Y76584D01*
X61941D01*
Y78533D01*
X63493D01*
Y83670D01*
X61941D01*
Y86014D01*
X63493D01*
Y91150D01*
X58553D01*
Y86014D01*
X60106D01*
Y83670D01*
X58553D01*
Y78533D01*
X60106D01*
Y76584D01*
X58553D01*
Y75266D01*
X58218Y74933D01*
X55905D01*
X55554Y74863D01*
X55257Y74665D01*
X52599Y72007D01*
X52214Y72113D01*
X52099Y72196D01*
Y146206D01*
X52407Y146412D01*
X52782Y146975D01*
X52914Y147638D01*
X52782Y148301D01*
X52407Y148863D01*
X51844Y149239D01*
X51181Y149371D01*
D02*
G37*
G36*
X60524Y69898D02*
X58153D01*
Y68421D01*
X58074Y68348D01*
X57434Y68423D01*
X57420Y68443D01*
X56726Y68907D01*
X56406Y68971D01*
Y66929D01*
Y64887D01*
X56726Y64951D01*
X57420Y65415D01*
X57434Y65435D01*
X58074Y65510D01*
X58153Y65437D01*
Y63961D01*
X60524D01*
Y66929D01*
Y69898D01*
D02*
G37*
G36*
X63894D02*
X61524D01*
Y67429D01*
X63894D01*
Y69898D01*
D02*
G37*
G36*
X232795Y73583D02*
X231868Y73461D01*
X231004Y73103D01*
X230261Y72534D01*
X229692Y71792D01*
X229334Y70927D01*
X229212Y70000D01*
X229334Y69073D01*
X229692Y68208D01*
X230261Y67466D01*
X231004Y66897D01*
X231868Y66539D01*
X232795Y66417D01*
X233723Y66539D01*
X234587Y66897D01*
X235329Y67466D01*
X235899Y68208D01*
X236257Y69073D01*
X236379Y70000D01*
X236257Y70927D01*
X235899Y71792D01*
X235329Y72534D01*
X234587Y73103D01*
X233723Y73461D01*
X232795Y73583D01*
D02*
G37*
G36*
X63894Y66429D02*
X61524D01*
Y63961D01*
X63894D01*
Y66429D01*
D02*
G37*
G36*
X217823Y62376D02*
Y60834D01*
X219364D01*
X219301Y61154D01*
X218836Y61848D01*
X218142Y62313D01*
X217823Y62376D01*
D02*
G37*
G36*
X212492Y63205D02*
X210122D01*
Y60736D01*
X212492D01*
Y63205D01*
D02*
G37*
G36*
X26191Y72155D02*
X21054D01*
Y67215D01*
X22704D01*
Y65354D01*
X22774Y65003D01*
X22973Y64705D01*
X26359Y61320D01*
X26657Y61121D01*
X27008Y61051D01*
X39243D01*
Y58416D01*
X46348D01*
Y65521D01*
X39243D01*
Y62886D01*
X27388D01*
X24540Y65734D01*
Y67215D01*
X26191D01*
Y72155D01*
D02*
G37*
G36*
X219364Y59834D02*
X217823D01*
Y58293D01*
X218142Y58356D01*
X218836Y58820D01*
X219301Y59515D01*
X219364Y59834D01*
D02*
G37*
G36*
X215862Y63205D02*
X213492D01*
Y60236D01*
Y57268D01*
X215862D01*
Y58254D01*
X216303Y58490D01*
X216503Y58356D01*
X216823Y58293D01*
Y60334D01*
Y62376D01*
X216503Y62313D01*
X216303Y62179D01*
X215862Y62415D01*
Y63205D01*
D02*
G37*
G36*
X212492Y59736D02*
X210122D01*
Y57268D01*
X212492D01*
Y59736D01*
D02*
G37*
G36*
X232795Y63583D02*
X231868Y63461D01*
X231004Y63103D01*
X230261Y62534D01*
X229692Y61792D01*
X229334Y60927D01*
X229212Y60000D01*
X229334Y59073D01*
X229692Y58208D01*
X230261Y57466D01*
X231004Y56897D01*
X231868Y56539D01*
X232795Y56417D01*
X233723Y56539D01*
X234587Y56897D01*
X235329Y57466D01*
X235899Y58208D01*
X236257Y59073D01*
X236379Y60000D01*
X236257Y60927D01*
X235899Y61792D01*
X235329Y62534D01*
X234587Y63103D01*
X233723Y63461D01*
X232795Y63583D01*
D02*
G37*
G36*
X42795Y55552D02*
X41868Y55430D01*
X41004Y55072D01*
X40261Y54502D01*
X39692Y53760D01*
X39334Y52896D01*
X39212Y51968D01*
X39334Y51041D01*
X39692Y50177D01*
X40261Y49435D01*
X41004Y48865D01*
X41868Y48507D01*
X42795Y48385D01*
X43723Y48507D01*
X44587Y48865D01*
X45329Y49435D01*
X45899Y50177D01*
X46257Y51041D01*
X46379Y51968D01*
X46257Y52896D01*
X45899Y53760D01*
X45329Y54502D01*
X44587Y55072D01*
X43723Y55430D01*
X42795Y55552D01*
D02*
G37*
G36*
X232795Y53583D02*
X231868Y53461D01*
X231004Y53103D01*
X230261Y52534D01*
X229692Y51792D01*
X229334Y50927D01*
X229212Y50000D01*
X229334Y49073D01*
X229692Y48208D01*
X230261Y47466D01*
X231004Y46897D01*
X231868Y46539D01*
X232795Y46417D01*
X233723Y46539D01*
X234587Y46897D01*
X235329Y47466D01*
X235899Y48208D01*
X236257Y49073D01*
X236379Y50000D01*
X236257Y50927D01*
X235899Y51792D01*
X235329Y52534D01*
X234587Y53103D01*
X233723Y53461D01*
X232795Y53583D01*
D02*
G37*
G36*
X135049Y46191D02*
X123849D01*
Y38928D01*
X135049D01*
Y41641D01*
X137519D01*
X137751Y41294D01*
X138313Y40918D01*
X138976Y40786D01*
X139640Y40918D01*
X140202Y41294D01*
X140578Y41856D01*
X140710Y42520D01*
X140578Y43183D01*
X140202Y43745D01*
X139640Y44121D01*
X138976Y44253D01*
X138313Y44121D01*
X137751Y43745D01*
X137571Y43477D01*
X135049D01*
Y46191D01*
D02*
G37*
G36*
X69793Y76584D02*
X64853D01*
Y71447D01*
X66405D01*
Y69498D01*
X64853D01*
Y64361D01*
X69793D01*
Y65618D01*
X72061D01*
X74673Y63006D01*
Y43951D01*
X74365Y43745D01*
X73989Y43183D01*
X73857Y42520D01*
X73989Y41856D01*
X74365Y41294D01*
X74927Y40918D01*
X75590Y40786D01*
X76254Y40918D01*
X76816Y41294D01*
X77192Y41856D01*
X77324Y42520D01*
X77192Y43183D01*
X76816Y43745D01*
X76508Y43951D01*
Y63386D01*
X76438Y63737D01*
X76239Y64035D01*
X73090Y67184D01*
X72792Y67383D01*
X72441Y67453D01*
X69793D01*
Y69498D01*
X68241D01*
Y71447D01*
X69793D01*
Y76584D01*
D02*
G37*
G36*
X160039Y45944D02*
X159163Y45829D01*
X158347Y45490D01*
X157646Y44952D01*
X157108Y44251D01*
X156770Y43435D01*
X156655Y42559D01*
X156770Y41683D01*
X157108Y40867D01*
X157646Y40166D01*
X158347Y39628D01*
X159163Y39290D01*
X160039Y39174D01*
X160915Y39290D01*
X161732Y39628D01*
X162433Y40166D01*
X162971Y40867D01*
X163309Y41683D01*
X163424Y42559D01*
X163309Y43435D01*
X162971Y44251D01*
X162433Y44952D01*
X161732Y45490D01*
X160915Y45829D01*
X160039Y45944D01*
D02*
G37*
G36*
X69065Y46191D02*
X57865D01*
Y38928D01*
X69065D01*
Y46191D01*
D02*
G37*
G36*
X42795Y45552D02*
X41868Y45430D01*
X41004Y45072D01*
X40261Y44502D01*
X39692Y43760D01*
X39334Y42896D01*
X39212Y41969D01*
X39334Y41041D01*
X39692Y40177D01*
X40261Y39435D01*
X41004Y38865D01*
X41868Y38507D01*
X42795Y38385D01*
X43723Y38507D01*
X44587Y38865D01*
X45329Y39435D01*
X45899Y40177D01*
X46257Y41041D01*
X46379Y41969D01*
X46257Y42896D01*
X45899Y43760D01*
X45329Y44502D01*
X44587Y45072D01*
X43723Y45430D01*
X42795Y45552D01*
D02*
G37*
G36*
X150106Y35899D02*
Y34358D01*
X151648D01*
X151584Y34677D01*
X151120Y35372D01*
X150425Y35836D01*
X150106Y35899D01*
D02*
G37*
G36*
X149106D02*
X148787Y35836D01*
X148092Y35372D01*
X147628Y34677D01*
X147564Y34358D01*
X149106D01*
Y35899D01*
D02*
G37*
G36*
X128949Y36591D02*
X123449D01*
Y33059D01*
X128949D01*
Y36591D01*
D02*
G37*
G36*
X151648Y33358D02*
X147564D01*
X147628Y33038D01*
X148092Y32344D01*
X148112Y32330D01*
X148187Y31690D01*
X148114Y31611D01*
X146637D01*
Y29862D01*
X144700D01*
Y31611D01*
X142232D01*
Y28741D01*
Y25870D01*
X144700D01*
Y27619D01*
X146637D01*
Y25870D01*
X149106D01*
Y28741D01*
X149606D01*
Y29241D01*
X152574D01*
Y31611D01*
X151098D01*
X151025Y31690D01*
X151100Y32330D01*
X151120Y32344D01*
X151584Y33038D01*
X151648Y33358D01*
D02*
G37*
G36*
X135449Y36591D02*
X129949D01*
Y32559D01*
Y28528D01*
X135449D01*
Y31438D01*
X136268D01*
X138465Y29241D01*
X141232D01*
Y31611D01*
X139267D01*
X137525Y33352D01*
X137162Y33595D01*
X136732Y33681D01*
X136732Y33681D01*
X135449D01*
Y36591D01*
D02*
G37*
G36*
X69065Y36191D02*
X57865D01*
Y28928D01*
X69065D01*
Y36191D01*
D02*
G37*
G36*
X128949Y32059D02*
X123449D01*
Y28528D01*
X128949D01*
Y32059D01*
D02*
G37*
G36*
X42795Y35552D02*
X41868Y35430D01*
X41004Y35072D01*
X40261Y34502D01*
X39692Y33760D01*
X39334Y32896D01*
X39212Y31969D01*
X39334Y31041D01*
X39692Y30177D01*
X40261Y29435D01*
X41004Y28865D01*
X41868Y28507D01*
X42795Y28385D01*
X43723Y28507D01*
X44587Y28865D01*
X45329Y29435D01*
X45899Y30177D01*
X46257Y31041D01*
X46379Y31969D01*
X46257Y32896D01*
X45899Y33760D01*
X45329Y34502D01*
X44587Y35072D01*
X43723Y35430D01*
X42795Y35552D01*
D02*
G37*
G36*
X232795Y33583D02*
X231868Y33461D01*
X231004Y33103D01*
X230261Y32534D01*
X229692Y31792D01*
X229334Y30927D01*
X229212Y30000D01*
X229334Y29073D01*
X229692Y28208D01*
X230261Y27466D01*
X231004Y26897D01*
X231868Y26539D01*
X232795Y26417D01*
X233723Y26539D01*
X234587Y26897D01*
X235329Y27466D01*
X235899Y28208D01*
X236257Y29073D01*
X236379Y30000D01*
X236257Y30927D01*
X235899Y31792D01*
X235329Y32534D01*
X234587Y33103D01*
X233723Y33461D01*
X232795Y33583D01*
D02*
G37*
G36*
X152574Y28240D02*
X150106D01*
Y25870D01*
X152574D01*
Y28240D01*
D02*
G37*
G36*
X141232Y28240D02*
X138763D01*
Y25870D01*
X141232D01*
Y28240D01*
D02*
G37*
G36*
X69065Y26191D02*
X57865D01*
Y18928D01*
X69065D01*
Y26191D01*
D02*
G37*
G36*
X232795Y23583D02*
X231868Y23461D01*
X231004Y23103D01*
X230261Y22534D01*
X229692Y21792D01*
X229334Y20927D01*
X229212Y20000D01*
X229334Y19073D01*
X229692Y18208D01*
X230261Y17466D01*
X231004Y16897D01*
X231868Y16539D01*
X232795Y16417D01*
X233723Y16539D01*
X234587Y16897D01*
X235329Y17466D01*
X235899Y18208D01*
X236257Y19073D01*
X236379Y20000D01*
X236257Y20927D01*
X235899Y21792D01*
X235329Y22534D01*
X234587Y23103D01*
X233723Y23461D01*
X232795Y23583D01*
D02*
G37*
G36*
X219185Y17437D02*
X216717D01*
Y15688D01*
X216142D01*
X216142Y15688D01*
X215712Y15603D01*
X215349Y15360D01*
X215349Y15360D01*
X214257Y14268D01*
X213795Y14460D01*
Y16315D01*
X210539D01*
Y12559D01*
Y8803D01*
X213795D01*
Y11108D01*
X214134Y11438D01*
X214563Y11523D01*
X214927Y11766D01*
X216216Y13056D01*
X216717Y12848D01*
Y11697D01*
X218193D01*
X218266Y11617D01*
X218191Y10977D01*
X218171Y10964D01*
X217707Y10269D01*
X217643Y9950D01*
X221727D01*
X221663Y10269D01*
X221199Y10964D01*
X221179Y10977D01*
X221104Y11617D01*
X221177Y11697D01*
X222654D01*
Y14067D01*
X219685D01*
Y14567D01*
X219185D01*
Y17437D01*
D02*
G37*
G36*
X222654D02*
X220185D01*
Y15067D01*
X222654D01*
Y17437D01*
D02*
G37*
G36*
X209539Y16315D02*
X206283D01*
Y13059D01*
X209539D01*
Y16315D01*
D02*
G37*
G36*
X160039Y15944D02*
X159163Y15829D01*
X158347Y15490D01*
X157646Y14953D01*
X157108Y14252D01*
X156770Y13435D01*
X156655Y12559D01*
X156770Y11683D01*
X157108Y10867D01*
X157646Y10166D01*
X158347Y9628D01*
X159163Y9290D01*
X160039Y9174D01*
X160915Y9290D01*
X161732Y9628D01*
X162433Y10166D01*
X162971Y10867D01*
X163309Y11683D01*
X163424Y12559D01*
X163309Y13435D01*
X162971Y14252D01*
X162433Y14953D01*
X161732Y15490D01*
X160915Y15829D01*
X160039Y15944D01*
D02*
G37*
G36*
X135049Y16191D02*
X123849D01*
Y8928D01*
X135049D01*
Y16191D01*
D02*
G37*
G36*
X69065D02*
X57865D01*
Y8928D01*
X69065D01*
Y16191D01*
D02*
G37*
G36*
X209539Y12059D02*
X206283D01*
Y8803D01*
X209539D01*
Y12059D01*
D02*
G37*
G36*
X221727Y8950D02*
X220185D01*
Y7408D01*
X220504Y7472D01*
X221199Y7936D01*
X221663Y8630D01*
X221727Y8950D01*
D02*
G37*
G36*
X219185D02*
X217643D01*
X217707Y8630D01*
X218171Y7936D01*
X218866Y7472D01*
X219185Y7408D01*
Y8950D01*
D02*
G37*
G36*
X19685Y32825D02*
X17629Y32664D01*
X15624Y32182D01*
X13719Y31393D01*
X11961Y30316D01*
X10393Y28977D01*
X9054Y27409D01*
X7977Y25651D01*
X7188Y23746D01*
X6706Y21741D01*
X6544Y19685D01*
X6706Y17629D01*
X7188Y15624D01*
X7977Y13719D01*
X9054Y11961D01*
X10393Y10393D01*
X11961Y9054D01*
X13719Y7977D01*
X15624Y7188D01*
X17629Y6706D01*
X19685Y6544D01*
X21741Y6706D01*
X23746Y7188D01*
X25651Y7977D01*
X27409Y9054D01*
X28977Y10393D01*
X30316Y11961D01*
X31393Y13719D01*
X32182Y15624D01*
X32664Y17629D01*
X32825Y19685D01*
X32664Y21741D01*
X32182Y23746D01*
X31393Y25651D01*
X30316Y27409D01*
X28977Y28977D01*
X27409Y30316D01*
X25651Y31393D01*
X23746Y32182D01*
X21741Y32664D01*
X19685Y32825D01*
D02*
G37*
G36*
X236348Y13553D02*
X229242D01*
Y6447D01*
X236348D01*
Y13553D01*
D02*
G37*
%LPD*%
G36*
X210080Y206733D02*
X210377Y206534D01*
X210435Y206522D01*
X210728Y206464D01*
X213179D01*
Y205896D01*
Y205740D01*
X207467D01*
X203543Y209664D01*
X203245Y209863D01*
X202894Y209933D01*
X198435D01*
Y212468D01*
X204344D01*
X210080Y206733D01*
D02*
G37*
G36*
X218459Y125546D02*
X219021Y125171D01*
X219684Y125039D01*
X220348Y125171D01*
X220630Y125359D01*
X221130Y125092D01*
Y114599D01*
X216939D01*
Y117314D01*
Y120285D01*
X215196D01*
Y124204D01*
X217037D01*
Y125650D01*
X218389D01*
X218459Y125546D01*
D02*
G37*
G36*
X191132Y71152D02*
X196269D01*
Y72500D01*
X198160D01*
X198367Y72000D01*
X197632Y71266D01*
X197389Y70902D01*
X197304Y70472D01*
X197304Y70472D01*
Y69660D01*
X197169Y69564D01*
X196669Y69823D01*
Y70193D01*
X194201D01*
Y67323D01*
X193701D01*
Y66823D01*
X190732D01*
Y64453D01*
X192209D01*
X192282Y64373D01*
X192207Y63733D01*
X192187Y63720D01*
X191723Y63025D01*
X191659Y62706D01*
X195742D01*
X195679Y63025D01*
X195215Y63720D01*
X195195Y63733D01*
X195120Y64373D01*
X195193Y64453D01*
X196669D01*
Y65291D01*
X197042Y65551D01*
X197169Y65586D01*
X197539Y65512D01*
X200378D01*
Y64945D01*
X201862D01*
Y66634D01*
X202862D01*
Y64945D01*
X204201D01*
Y61606D01*
X204201Y61606D01*
X204222Y61497D01*
Y59352D01*
X203473Y58602D01*
X185474D01*
Y72501D01*
X191132D01*
Y71152D01*
D02*
G37*
%LPC*%
G36*
X193201Y70193D02*
X190732D01*
Y67823D01*
X193201D01*
Y70193D01*
D02*
G37*
G36*
X195742Y61706D02*
X194201D01*
Y60164D01*
X194520Y60228D01*
X195215Y60692D01*
X195679Y61386D01*
X195742Y61706D01*
D02*
G37*
G36*
X193201D02*
X191659D01*
X191723Y61386D01*
X192187Y60692D01*
X192881Y60228D01*
X193201Y60164D01*
Y61706D01*
D02*
G37*
%LPD*%
D12*
X55906Y66929D02*
X61024D01*
X129134Y165748D02*
Y209449D01*
X122834Y215749D02*
X129134Y209449D01*
X29528Y174409D02*
Y174508D01*
Y174311D02*
Y174409D01*
X37795Y182776D02*
Y207874D01*
X29528Y174508D02*
X37795Y182776D01*
X206693Y60137D02*
Y60236D01*
X205323Y58767D02*
X206693Y60137D01*
X205224Y58767D02*
X205323D01*
X203937Y57480D02*
X205224Y58767D01*
X183858Y57480D02*
X203937D01*
X193701Y62206D02*
Y67323D01*
X202362Y69193D02*
X204532D01*
X205323Y61606D02*
X206693Y60236D01*
X205323Y61606D02*
Y68403D01*
X204532Y69193D02*
X205323Y68403D01*
X212992Y60236D02*
X216437D01*
X198031Y136614D02*
Y175591D01*
X214173Y191733D01*
X149606Y28741D02*
Y33858D01*
X75590Y107874D02*
X83898D01*
X215749Y220472D02*
X221259D01*
X215748Y220472D02*
X215749Y220472D01*
X52755Y180314D02*
Y185434D01*
X49213Y188976D02*
X52755Y185434D01*
X49213Y211811D02*
X53150Y215748D01*
X49213Y188976D02*
Y211811D01*
X187795Y98820D02*
Y103937D01*
X183859Y73622D02*
X193700D01*
X183858Y73622D02*
X183859Y73622D01*
X227370Y204913D02*
X231799D01*
X225590Y206693D02*
Y210236D01*
Y206693D02*
X227370Y204913D01*
X231799D02*
X231890Y204823D01*
X216929Y212500D02*
X223326D01*
X225886Y209941D01*
X231890D01*
X227559Y220374D02*
Y220472D01*
Y220374D02*
X231890Y216043D01*
Y212500D02*
Y216043D01*
X216929Y212500D02*
Y216043D01*
X221259Y220373D01*
Y220472D01*
X216142Y14567D02*
X219685D01*
X210039Y12559D02*
X214134D01*
X216142Y14567D01*
X215748Y20866D02*
X215748Y20866D01*
X212881Y20866D02*
X215748D01*
X211188Y22559D02*
X212881Y20866D01*
X210039Y22559D02*
X211188D01*
X215748Y20866D02*
X219685D01*
X197539Y66634D02*
X202362D01*
X196850Y67323D02*
X197539Y66634D01*
X202362Y69193D02*
X202423Y69254D01*
X206594Y71752D02*
X208661D01*
X202362Y74311D02*
X202551Y74122D01*
X204224D01*
X206594Y71752D01*
X199705D02*
X202362D01*
X198425Y70472D02*
X199705Y71752D01*
X198425Y68898D02*
Y70472D01*
X193701Y67323D02*
X196850D01*
X198425Y68898D01*
X208661Y74311D02*
X212106D01*
X193700Y73622D02*
X193701Y73622D01*
X198425D01*
X199114Y74311D02*
X202362D01*
X198425Y73622D02*
X199114Y74311D01*
X168898Y107874D02*
X169291Y107480D01*
X177165D01*
X179922Y110237D02*
X187795D01*
X177165Y107480D02*
X179922Y110237D01*
X193996Y113681D02*
X196949D01*
X190551Y110237D02*
X193996Y113681D01*
X187795Y110237D02*
X190551D01*
X201673Y111122D02*
X208268Y117717D01*
X196949Y111122D02*
X201673D01*
X208268Y117717D02*
Y126772D01*
X214075Y118799D02*
Y126280D01*
X214567Y126772D01*
X216142Y162598D02*
X216142Y162598D01*
X212598Y162598D02*
X216142D01*
X205906Y161122D02*
X211122D01*
X212598Y162598D01*
X207874Y168898D02*
X216141D01*
X205906Y166929D02*
X207874Y168898D01*
X205906Y163681D02*
Y166929D01*
X185433Y155905D02*
Y158661D01*
Y150787D02*
Y155905D01*
X185531Y156004D02*
X190945D01*
X185433Y155905D02*
X185531Y156004D01*
X185433Y158661D02*
Y161024D01*
X185531Y158563D02*
X190945D01*
X185433Y158661D02*
X185531Y158563D01*
X185433Y161024D02*
Y162598D01*
X185531Y161122D02*
X190945D01*
X185433Y161024D02*
X185531Y161122D01*
X185433Y150787D02*
X187402Y148819D01*
X190157D01*
X185433Y162598D02*
X186516Y163681D01*
X190945D01*
X177559Y159056D02*
Y164173D01*
X161024Y161515D02*
X162992D01*
X165451Y159056D01*
X177559D01*
X156398Y166634D02*
X161024D01*
X155118Y165355D02*
X156398Y166634D01*
X155118Y153544D02*
Y165355D01*
X148819Y153543D02*
X149213Y153937D01*
Y157972D01*
X143701Y161515D02*
X145669D01*
X149213Y157972D01*
X143702Y153543D02*
X148819D01*
X155118Y153544D02*
X160236D01*
X141732Y22441D02*
X149606D01*
X129567D02*
X141732D01*
X129449Y22559D02*
X129567Y22441D01*
X141732Y28741D02*
X149606D01*
X140551D02*
X141732D01*
X136732Y32559D02*
X140551Y28741D01*
X129449Y32559D02*
X136732D01*
X117717Y215749D02*
X122834D01*
X117716Y208661D02*
X122833D01*
X67323Y81102D02*
X72440D01*
X67322Y88582D02*
X72440D01*
X219685Y9450D02*
Y14567D01*
X203151Y126772D02*
X208268D01*
X214567Y126772D02*
X219684D01*
X214173Y191733D02*
Y196850D01*
X216141Y168898D02*
Y174015D01*
X216142Y157481D02*
Y162598D01*
X105511Y159056D02*
Y164173D01*
X67717Y153543D02*
X72834D01*
X79133Y153543D02*
X84251D01*
X59842Y175197D02*
Y180314D01*
X52755Y175197D02*
Y180314D01*
X53151Y208661D02*
X58268D01*
X58267Y215748D02*
X58267Y215747D01*
X53150Y215748D02*
X58267D01*
X18111Y174409D02*
X23228D01*
X18110Y174409D02*
X18111Y174409D01*
X0Y0D02*
X275591D01*
X0D02*
Y228346D01*
X275590D01*
X275591Y0D01*
D16*
X42795Y21969D02*
X51181Y30354D01*
X53150Y15748D02*
Y71260D01*
X49370Y11969D02*
X53150Y15748D01*
Y71260D02*
X55905Y74016D01*
X42795Y11969D02*
X49370D01*
X11023Y75984D02*
X29528D01*
X11023Y75985D02*
X11023Y75984D01*
X98425Y170472D02*
X111417D01*
X113386Y63386D02*
Y168504D01*
X111417Y170472D02*
X113386Y168504D01*
X126378Y162205D02*
X135039D01*
X111417Y177166D02*
Y208661D01*
Y177166D02*
X126378Y162205D01*
X34646Y20118D02*
X42795Y11969D01*
X11024Y69685D02*
X11122D01*
X12692Y68115D01*
Y68016D02*
Y68115D01*
Y68016D02*
X34646Y46063D01*
Y20118D02*
Y46063D01*
X27008Y61968D02*
X42795D01*
X23622Y65354D02*
X27008Y61968D01*
X23622Y65354D02*
Y69685D01*
X185039Y209015D02*
X189410Y213386D01*
X204724D02*
X210728Y207382D01*
X189410Y213386D02*
X204724D01*
X207087Y204822D02*
X216929D01*
X194882Y209015D02*
X202894D01*
X207087Y204822D01*
X210728Y207382D02*
X216929D01*
Y204822D02*
X219488D01*
X51181Y30354D02*
Y147638D01*
X239469Y207382D02*
X242126Y204724D01*
X231890Y207382D02*
X239469D01*
X242126Y191732D02*
Y204724D01*
Y191732D02*
X242126Y42126D01*
X240000Y40000D02*
X242126Y42126D01*
X232795Y40000D02*
X240000D01*
X224410Y167598D02*
X232795Y175984D01*
X224410Y37402D02*
Y111024D01*
X220472Y196850D02*
Y203838D01*
X219488Y204822D02*
X220472Y203838D01*
X208661Y69193D02*
X219980D01*
X219685Y32677D02*
X224410Y37402D01*
X222047Y66535D02*
Y113779D01*
Y46850D02*
Y66535D01*
X208661Y66634D02*
X221949D01*
X222047Y66535D01*
X187795Y116732D02*
X192217D01*
X192710Y116240D01*
X196949D01*
X196850Y118898D02*
X196949Y118799D01*
X193701Y118898D02*
X196850D01*
X187795Y121063D02*
X191535D01*
X193701Y118898D01*
X222047Y113779D02*
Y154331D01*
X214075Y113681D02*
X221949D01*
X222047Y113779D01*
X224410Y111024D02*
Y151575D01*
X214075Y111122D02*
X219981D01*
X217323Y42126D02*
X222047Y46850D01*
X224410Y151575D02*
Y167598D01*
X214567Y151575D02*
X219291D01*
X205906Y156004D02*
X210138D01*
X214567Y151575D01*
X205906Y158563D02*
X211122D01*
X215354Y154331D02*
X222047D01*
X211122Y158563D02*
X215354Y154331D01*
X222047D02*
Y175236D01*
X210039Y42559D02*
X210472Y42126D01*
X217323D01*
X210039Y32559D02*
X210157Y32677D01*
X219685D01*
X222047Y175236D02*
X232795Y185984D01*
X170375Y164075D02*
X170473Y164173D01*
X161024Y164075D02*
X170375D01*
X176870Y170472D02*
X177015Y170618D01*
X181745D02*
X182677Y169685D01*
Y147638D02*
Y169685D01*
X170472Y170472D02*
X176870D01*
X177015Y170618D02*
X181745D01*
X161024Y169193D02*
Y175197D01*
X159055Y177165D02*
X161024Y175197D01*
X156299Y177165D02*
X159055D01*
X149999Y177165D02*
X150000Y177165D01*
X144882Y177165D02*
X149999D01*
X143701Y169193D02*
Y175984D01*
X144882Y177165D01*
X139665Y166634D02*
X143701D01*
X135039Y168504D02*
X137795D01*
X139665Y166634D01*
X75590Y207244D02*
X76614Y208268D01*
X75590Y181102D02*
Y207244D01*
X135039Y168504D02*
Y175196D01*
X135039Y175197D01*
X139665Y164075D02*
X143701D01*
X137795Y162205D02*
X139665Y164075D01*
X135039Y162205D02*
X137795D01*
X111417Y208661D02*
Y215748D01*
X111417Y215748D01*
X96614Y208268D02*
X111024D01*
X111417Y208661D01*
X64962Y208268D02*
X76614D01*
X64567Y208662D02*
X64962Y208268D01*
X64567Y208662D02*
Y215748D01*
Y208662D02*
X64567Y208662D01*
X58218Y74016D02*
X58219Y74015D01*
X55905Y74016D02*
X58218D01*
X61023Y81102D02*
Y88582D01*
Y74015D02*
Y81102D01*
X58219Y74015D02*
X61023D01*
X67323Y66930D02*
Y74015D01*
X67323Y74016D02*
X67323Y74015D01*
Y66930D02*
X67717Y66535D01*
X72441D01*
X75590Y42520D02*
Y63386D01*
X72441Y66535D02*
X75590Y63386D01*
X129449Y42559D02*
X138937D01*
X138976Y42520D01*
X83169Y161515D02*
X87008D01*
X79134Y157480D02*
X83169Y161515D01*
X79134Y153543D02*
Y157480D01*
X87008Y164075D02*
X98328D01*
X98426Y164173D01*
X81988Y166634D02*
X87008D01*
X72834Y157480D02*
X81988Y166634D01*
X72834Y153543D02*
Y157480D01*
X87008Y169193D02*
Y177165D01*
X74015Y177165D02*
X80708D01*
X69685Y172835D02*
X74015Y177165D01*
X69685Y169193D02*
Y172835D01*
X69390Y166929D02*
X69685Y166634D01*
X64567Y166929D02*
X69390D01*
X59843Y168897D02*
X62599D01*
X64567Y166929D01*
X52756Y168898D02*
X59843D01*
X59843Y168897D01*
X29528Y174311D02*
X31098Y172741D01*
X31196D01*
X39862Y164075D01*
X69685D01*
D19*
X23622Y69685D02*
D03*
X23621Y75985D02*
D03*
X11024Y69685D02*
D03*
X11023Y75985D02*
D03*
X177558Y170473D02*
D03*
X177559Y164173D02*
D03*
X170473Y164173D02*
D03*
X170472Y170472D02*
D03*
X105512Y164173D02*
D03*
X105511Y170473D02*
D03*
X52756Y168898D02*
D03*
X52755Y175197D02*
D03*
X59842Y175197D02*
D03*
X59843Y168897D02*
D03*
X98425Y170472D02*
D03*
X98426Y164173D02*
D03*
X135039Y168504D02*
D03*
X135039Y162205D02*
D03*
X219685Y14567D02*
D03*
X219684Y20866D02*
D03*
X149606Y22441D02*
D03*
X149606Y28741D02*
D03*
X141732Y22441D02*
D03*
X141732Y28741D02*
D03*
X193701Y67323D02*
D03*
X193700Y73622D02*
D03*
X187795Y103937D02*
D03*
X187795Y110237D02*
D03*
X216142Y162598D02*
D03*
X216141Y168898D02*
D03*
D20*
X212992Y60236D02*
D03*
X206693Y60236D02*
D03*
X155118Y153544D02*
D03*
X148819Y153543D02*
D03*
X79134Y153543D02*
D03*
X72834Y153543D02*
D03*
X87008Y177165D02*
D03*
X80708Y177165D02*
D03*
X64567Y215748D02*
D03*
X58267Y215747D02*
D03*
X58268Y208661D02*
D03*
X64567Y208662D02*
D03*
X29528Y174409D02*
D03*
X23228Y174409D02*
D03*
X150000Y177165D02*
D03*
X156299Y177165D02*
D03*
X111417Y215748D02*
D03*
X117717Y215749D02*
D03*
X117717Y208661D02*
D03*
X111417Y208661D02*
D03*
X220472Y196850D02*
D03*
X214173Y196850D02*
D03*
X227559Y220472D02*
D03*
X221259Y220472D02*
D03*
X67323Y88583D02*
D03*
X61023Y88582D02*
D03*
X67323Y81102D02*
D03*
X61023Y81102D02*
D03*
X67323Y74016D02*
D03*
X61023Y74015D02*
D03*
X61024Y66929D02*
D03*
X67323Y66930D02*
D03*
X208268Y126772D02*
D03*
X214567Y126772D02*
D03*
D21*
X216929Y207382D02*
D03*
X231890Y209941D02*
D03*
X216929D02*
D03*
X231890Y207382D02*
D03*
X216929Y204822D02*
D03*
X231890Y212500D02*
D03*
X216929D02*
D03*
X231890Y204823D02*
D03*
X205906Y161122D02*
D03*
X190945Y158563D02*
D03*
X205906D02*
D03*
X190945Y161122D02*
D03*
X205906Y163681D02*
D03*
X190945Y156004D02*
D03*
X205906D02*
D03*
X190945Y163681D02*
D03*
D22*
X196949Y118799D02*
D03*
X214075Y111122D02*
D03*
X196949D02*
D03*
X214075Y118799D02*
D03*
X196949Y116240D02*
D03*
X214075Y113681D02*
D03*
X196949D02*
D03*
X214075Y116240D02*
D03*
D23*
X208661Y74311D02*
D03*
Y71752D02*
D03*
Y69193D02*
D03*
Y66634D02*
D03*
X202362Y74311D02*
D03*
Y71752D02*
D03*
Y69193D02*
D03*
Y66634D02*
D03*
D24*
X69685Y169193D02*
D03*
X87008Y161515D02*
D03*
X69685D02*
D03*
X87008Y169193D02*
D03*
X69685Y166634D02*
D03*
X87008Y164075D02*
D03*
X69685D02*
D03*
X87008Y166634D02*
D03*
X161024Y166634D02*
D03*
X143701Y164075D02*
D03*
X161024D02*
D03*
X143701Y166634D02*
D03*
X161024Y169193D02*
D03*
X143701Y161515D02*
D03*
X161024D02*
D03*
X143701Y169193D02*
D03*
D25*
X83898Y107874D02*
D03*
X168898D02*
D03*
D26*
X187795Y116732D02*
D03*
Y121063D02*
D03*
D27*
X129449Y12559D02*
D03*
Y22559D02*
D03*
Y32559D02*
D03*
Y42559D02*
D03*
X63465D02*
D03*
Y32559D02*
D03*
Y22559D02*
D03*
Y12559D02*
D03*
D44*
X145669Y209015D02*
D03*
X155512D02*
D03*
X185039D02*
D03*
X175197D02*
D03*
X165354D02*
D03*
X27953Y207874D02*
D03*
X263386Y166457D02*
D03*
Y156457D02*
D03*
Y146457D02*
D03*
X232795Y115984D02*
D03*
Y185984D02*
D03*
Y175984D02*
D03*
Y165984D02*
D03*
Y155984D02*
D03*
Y145984D02*
D03*
Y135984D02*
D03*
Y125984D02*
D03*
Y105984D02*
D03*
Y20000D02*
D03*
Y30000D02*
D03*
Y40000D02*
D03*
Y50000D02*
D03*
Y60000D02*
D03*
Y70000D02*
D03*
Y80000D02*
D03*
X42795Y141969D02*
D03*
Y131968D02*
D03*
Y121968D02*
D03*
Y111969D02*
D03*
Y101969D02*
D03*
Y91969D02*
D03*
Y81968D02*
D03*
Y51968D02*
D03*
Y41969D02*
D03*
Y31969D02*
D03*
Y21969D02*
D03*
Y11969D02*
D03*
D45*
X205114Y22559D02*
X210039D01*
X185039Y2484D02*
X205114Y22559D01*
X154996Y2484D02*
X185039D01*
X149606Y7874D02*
X154996Y2484D01*
X149606Y7874D02*
Y22441D01*
X183858Y57480D02*
Y73622D01*
X154724Y23594D02*
Y37795D01*
X149606Y22441D02*
X153571D01*
X154724Y23594D01*
X149213Y43307D02*
X154724Y37795D01*
X149213Y43307D02*
Y115354D01*
X183858Y73622D02*
Y93701D01*
X219684Y126772D02*
X219685Y126773D01*
Y147638D01*
X22520Y121968D02*
X42795D01*
X18110Y126378D02*
Y174409D01*
Y126378D02*
X22520Y121968D01*
D46*
X194882Y209015D02*
D03*
X37795Y207874D02*
D03*
X263386Y136457D02*
D03*
X232795Y95984D02*
D03*
Y10000D02*
D03*
X42795Y151969D02*
D03*
Y61968D02*
D03*
D47*
X96614Y208268D02*
D03*
X86614D02*
D03*
D48*
X76614D02*
D03*
D49*
X19685Y19685D02*
D03*
X255906Y208661D02*
D03*
D50*
X210039Y12559D02*
D03*
D51*
X160039Y42559D02*
D03*
X210039D02*
D03*
X160039Y12559D02*
D03*
X210039Y22559D02*
D03*
X160039Y32559D02*
D03*
X210039D02*
D03*
X160039Y22559D02*
D03*
D52*
X29528Y75984D02*
D03*
X55906Y66929D02*
D03*
X113386Y63386D02*
D03*
X193701Y62206D02*
D03*
X217322Y60334D02*
D03*
X198031Y136614D02*
D03*
X149606Y33858D02*
D03*
X149213Y115354D02*
D03*
X75590Y107874D02*
D03*
X215748Y220472D02*
D03*
X129134Y165748D02*
D03*
X219291Y151575D02*
D03*
X190157Y148819D02*
D03*
X187795Y98820D02*
D03*
X183858Y93701D02*
D03*
X219685Y147638D02*
D03*
X212992Y74410D02*
D03*
X224410Y69291D02*
D03*
X219980Y69193D02*
D03*
X224410Y111024D02*
D03*
X219981Y111122D02*
D03*
X224410Y151575D02*
D03*
X177559Y159056D02*
D03*
X182677Y147638D02*
D03*
X143702Y153543D02*
D03*
X160236Y153544D02*
D03*
X75590Y181102D02*
D03*
X135039Y175196D02*
D03*
X51181Y147638D02*
D03*
X75590Y42520D02*
D03*
X138976D02*
D03*
X122833Y208661D02*
D03*
X72440Y81102D02*
D03*
X72440Y88582D02*
D03*
X219685Y9450D02*
D03*
X203151Y126772D02*
D03*
X219684Y126772D02*
D03*
X214173Y191733D02*
D03*
X216141Y174015D02*
D03*
X216142Y157481D02*
D03*
X105511Y159056D02*
D03*
X67717Y153543D02*
D03*
X84251Y153543D02*
D03*
X59842Y180314D02*
D03*
X52755Y180314D02*
D03*
X53151Y208661D02*
D03*
X18110Y174409D02*
D03*
M02*
